<svg height="1500" version="1.1" width="2000" xmlns="http://www.w3.org/2000/svg" preserveAspectRatio="xMidYMid meet" viewBox="0 0 600 442" xmlns:xlink="http://www.w3.org/1999/xlink"><desc>Created with Snap</desc><defs/><g id="root" contentwidth="293" contentheight="239.10000000000002">
          <rect class="background" height="2000%" width="2000%" y="-1000%" x="-1000%" style="" fill="#ffffff"/>
          <g class="content" id="content" transform="matrix(1,0,0,1,-11.5,-18.25)">
            <g class="icon">
            <svg height="166" version="1.1" width="269" xmlns="http://www.w3.org/2000/svg" x="165" y="138" preserveAspectRatio="none" transform="matrix(1,0,0,1,0,0)"><desc>Created with Snap</desc><defs/><svg xmlns="http://www.w3.org/2000/svg" viewBox="165 138 269 166"><path d="M351.216 176.343c-7.266 13.518-26.265 36.527-38.606 50.902-5.787 6.741-12.594 12.508-20.097 17.258-26.965 17.074-21.157 53.504-40.265 58.35-7.602 1.928-12.9 1.2-16.566-.513-5.27-2.46-7.548-8.79-5.317-14.168 3.533-8.522 9.23-25.687 14.979-43.836l.473-1.494.472-1.497.472-1.5.236-.75.919-2.93.522-1.67.51-1.634c8.305-26.667 15.77-52 15.77-52 3.634-1.533 11.13-.994 15.03-.573l.46.05a64.01 64.01 0 0 1 2.014.257h.008l1.061 7.176 8.756-12.225c29.187-10.366 59.169.797 59.169.797Zm-114.667-31.747c19.244 1.774 26.549 20.989 26.833 21.757l.009.023c-6.368 6.38-34.426 111.627-45.173 128.172-5.148 7.927-14.057 9.487-21.943 8.968-6.428-3.211-11.513-8.198-10.468-15.84l.055-.366-.068-.009-1.556-.195-.36-.046-.693-.087c-6.03-.604-11.763-5.976-10.224-12.245.786-3.08 3.888-5.385 7.11-4.911.439.02 1.327-.049 2.11-.528.753-.459 1.104-.982 1.317-1.295 2.5-4.498 8.099-7.136 13.067-7.343 7.191.087 11.072 6.222 7.644 12.742l1.912-.617c5.413-1.998 13.039 1.04 11.236 7.7-1.868 7.305-14.704 10.646-20.967 8.131-4.617-1.65-7.748-8.516-5.948-13.032 1.208-2.448 4.853-2.714 7.286-1.636.303.149.587-.286.324-.506a7.688 7.688 0 0 0-4.81-1.844c-9.176.13-8.042 13.082-3.52 18.156 6.381 7.392 18.126 5.985 25.254.623 8.514-6.086 7.35-19.441-4.341-19.968a15.227 15.227 0 0 0-3.364.19c1.713-6.608-3.515-13.086-10.388-13.867-6.567-.782-13.557 1.993-17.494 7.262-7.774-.645-14.515 7.293-12.934 15.03.943 7.085 7.352 12.192 14.095 13.228.847 4.057 3.354 7.378 6.623 9.82-4.084-1.007-6.831-2.134-6.831-2.134-26.793-12.103-10.418-46.088-10.087-46.766l.005-.01 46.167-104.717c5.028-2.175 9.58-3.355 13.69-3.782 1.249-.13.838 6.174.838 6.174s4.685-6.315 5.594-6.232Zm176.697 51.466c-10.175-.258-20.377 4.195-26.717 12.332a3.58 3.58 0 0 0-.3.459 57.415 57.415 0 0 0-3.1.386c-7.799 1.197-16.266 4.905-19.996 12.311-2.151 4.274-2.44 9.031-1.625 13.69.913 5.218 2.873 11.236 7.579 14.176 4.73 2.955 11.147 2.86 16.28 1.106 2.961-1.013 5.975-2.731 7.938-5.182 4.062 5.36 11.492 8.272 17.928 8.77 5.289.41 10.122-1.443 14.214-4.523a2136.285 2136.285 0 0 0 8.552 30.937l.001.004-10.878 8.77-5.042-6.91-1.592 10.365c-23.19 14.14-52.127 8.37-54.962 7.759l-.19-.042-.02-.005-.017-.004-2.388-13.82c-1.76.755-4.474 11.536-4.753 12.662l-.02.084-.003.011h-.153c-1.458-.013-13.059-.204-20.013-3.19-2.94-1.262-7.835-1.734-12.676-1.842l-.763-.014c-6.877-.102-13.43.485-13.866.525l-.023.002.024-.004.041-.008a3.13 3.13 0 0 0 .087-.019l.157-.039c1.618-.434 9.18-3.333 12.957-20.128 4.2-18.67 10.879-30.83 25.472-49.701 3.357-4.341 7.121-9.216 10.928-14.15l1.49-1.933.903-1.17c7.812-10.13 15.48-20.089 19.853-25.77 2.15-2.793 5.275-4.647 8.737-5.291 7.007-1.304 11.952-4.841 11.952-4.841 8.35-2.353 12.849 9.437 14.004 24.237ZM306.327 248.41l.193.123 8.097 5.5a2.824 2.824 0 0 1 1.209 2.774c-1.338 8.63-9.564 45.428-52.452 44.286-.784-.02-1.143-.984-.55-1.5 3.04-2.64 9.435-9.46 15.69-24.114 6.735-15.773 18.808-24.173 23.775-27.096a3.954 3.954 0 0 1 4.038.027Zm-8.436 7.797c-4.84 3.604-12.93 11.1-13.427 21.205-.051 1.054 1.17 1.686 2.015 1.056.69-.513 1.452-1.169 2.098-1.941.344-.41 1-.094.887.427-.686 3.114-2.081 7.652-4.759 10.736-.632.728-.066 1.86.888 1.714 5.182-.8 15.936-4.835 22.264-24.014.931-2.819.09-5.922-2.087-7.913l-.208-.183-1.052-.892a5.309 5.309 0 0 0-6.62-.195Zm115.914-55.366c1.254 7.886 4.51 21.425 8.053 35.132l.402 1.552.404 1.552.405 1.55.406 1.545.61 2.308c-1.027.94-2.106 1.81-3.292 2.535-5.245 3.215-11.296 2.748-16.824.318-3.765-1.654-7.41-4.084-8.562-8.3-.728-2.662-4.605-2.042-4.713.64-.016.413.026.328.01.382l-.041.123a9.212 9.212 0 0 0-.062.202l-.033.1c-.089.258-.292.808-.21.653l.014-.031-.094.196c-.333.676-.562.968-1.032 1.455l-.149.153c-1.048 1.068-2.516 1.974-3.915 2.573-3.52 1.51-7.616 1.942-11.18.897-1.583-.463-2.995-1.26-4.127-2.487-1.277-1.386-2.025-3.69-2.644-5.591-.67-2.062-1.186-4.18-1.33-6.3-.13-1.921-.034-3.532.363-5.171 1.45-5.978 6.601-9.728 12.383-11.603a36.312 36.312 0 0 1 4.908-1.21c.967-.169 1.16-.194 1.911-.277.878-.097 1.76-.167 2.642-.206a39.437 39.437 0 0 1 4.6.05c.364.025.727.057 1.088.094.086.008.587.07.734.085.655.095 1.307.207 1.954.349.685.15 1.364.326 2.03.541.293.095.581.203.87.31.025.008.057.02.088.033.093.04.187.08.276.126 1.115.59 2.342 1.187 3.13 2.213.952 1.238.909 2.924.552 4.365-.72 2.929-2.906 6.622-6.174 7.09-1.391.199-2.787-.356-3.415-1.661-.724-1.506-.015-2.925 1.193-3.895 1.01-.813.845-2.551 0-3.398-1-1.002-2.38-.815-3.393 0-3.33 2.675-3.778 7.627-1.116 10.92 2.582 3.192 7.082 3.555 10.589 1.734 6.54-3.394 10.475-14.446 3.97-19.663-3.42-2.744-7.842-3.872-12.34-4.13 5.617-5.33 13.328-8.28 21.061-7.853Zm-95.704 35.648.134.12 5.748 5.57c.94.912.988 2.395.136 3.365l-.122.129-2.747 2.708a2.435 2.435 0 0 1-3.324.088l-.127-.12-5.74-5.876a2.444 2.444 0 0 1 .004-3.42l.132-.125 2.741-2.401a2.433 2.433 0 0 1 3.165-.038Zm64.231-82.913c.446.104.902.295 1.159.673.185.274.244.613.28.942.476 4.286-2.01 8.29-4.498 11.811-12.19 17.266-26.906 32.699-38.219 50.554-3.433 5.419-6.54 11.04-9.988 16.45-.732 1.149-1.508 2.316-2.63 3.087-3.198 2.192-6.34-1.212-6.278-4.488.064-3.278 2.755-6.641 4.667-9.07l14.263-18.123c2.727-3.466 5.458-6.936 7.907-10.603 2.295-3.436 4.336-7.033 6.477-10.567a213.914 213.914 0 0 1 18.669-26.147c2.11-2.53 4.986-5.263 8.191-4.519Zm9.247-12.916-.11.053a4.905 4.905 0 0 0-.423.242c-.411.265-.753.645-1.022 1.163-.3.578-1.102.746-1.64.431-.579-.339-.73-1.068-.431-1.644.745-1.437 2.215-2.494 3.799-2.798a5.506 5.506 0 0 1 4.413 1.01c1.361 1.012 2.56 2.334 3.117 3.963.558 1.628.244 3.591-1.025 4.804-1.062 1.013-2.508 1.585-3.96 1.798.257.995-.544 1.957-1.355 2.6-.506.4-1.043.764-1.603 1.085-.434.25-.922.48-1.418.405-.37-.057-.692-.278-.999-.493-.54-.378-1.08-.758-1.622-1.136-.838-.588-1.709-1.213-2.168-2.128-.545-1.088-.394-2.444.223-3.492 1.425-2.419 3.143-2.38 5.04-.765l.159.138 2.03 1.811c.218-.2.509-.325.822-.341a5.565 5.565 0 0 0 2.117-.52c.585-.28 1.23-.712 1.446-1.2.281-.636.229-1.226.025-1.858-.2-.615-.625-1.208-1.083-1.698-.537-.573-1.128-1.095-1.835-1.448-.525-.262-.928-.29-1.585-.235.213-.018-.233.044-.281.055-.158.037-.31.09-.467.136-.115.045-.144.054-.089.028l-.075.034Z" id="prefix-JJ_-形状结合" fill="#E6BE8D"/></svg></svg><svg height="42" version="1.1" width="24" xmlns="http://www.w3.org/2000/svg" x="434" y="138" preserveAspectRatio="none" transform="matrix(1,0,0,1,0,0)"><desc>Created with Snap</desc><defs/><svg xmlns="http://www.w3.org/2000/svg" viewBox="434 138 24 42"><path d="M448.008 138a.905.905 0 0 1 .248.032l.249.066c.657.16 1.315.319 1.97.487.09.023.176.086.25.148a9.8 9.8 0 0 0 .222.183l.45.356c.299.24.588.494.834.816.334.438.933.66 1.387 1.013.301.235.574.516.824.807.209.242.406.511.534.802.094.214.067.483.097.727.062.496.133.99.182 1.488.009.086-.046.23-.113.263-.276.137-.287.374-.275.627.063 1.356.118 2.713.203 4.069.015.244.171.476.227.722.071.31.1.63.158.945.052.281.128.558.18.84.099.554.14 1.124.293 1.662.127.447.082.88.022 1.313l-.06.431.019.002.019.001.042 1.42a2.65 2.65 0 0 1-.107-.565c.02.502.072 1.005.085 1.509a4.99 4.99 0 0 1-.077.947c-.056.334.032.58.312.762.683.442.856 1.134.883 1.89.003.076-.082.15-.1.232-.02.083-.036.236-.004.251.306.148.19.422.188.644-.003.367-.057.734-.07 1.102-.03.863.032 1.738-.1 2.584-.083.53.106.964.145 1.444.044.556.147 1.12-.187 1.655-.08.127.02.42.111.594.21.397.341.79.162 1.226-.152.368-.352.717-.482 1.092-.18.52-.3 1.06-.47 1.585a3.169 3.169 0 0 1-1.308 1.725 4.68 4.68 0 0 0-.464.356l-.447.384a.372.372 0 0 0-.116.142c-.288.788-.962 1.049-1.67 1.26-.222.067-.417.152-.387.45.268.152.48.053.685-.07l.177-.106a.731.731 0 0 1 .372-.12c.01.031.03.069.024.073-.438.339-.77.818-1.311 1.023-.09.034-.197.063-.26.13-.377.391-.86.45-1.35.425-.998-.048-1.995-.166-2.992-.175-.483-.004-.968.168-1.45.272-.476.103-.91.123-1.215-.377-.058-.095-.248-.167-.368-.155a3.246 3.246 0 0 1-2.172-.55c-.237-.158-.553-.19-.806-.33-.588-.324-1.156-.686-1.74-1.018-.472-.27-.933-.597-1.442-.759-.626-.199-1.081-.62-1.498-1.055-.305-.319-.379-.853-.637-1.233-.165-.242-.185-.495-.183-.749l.006-.304c0-.1-.003-.201-.02-.3-.165-1.042-.286-2.094-.21-3.165.06-.834-.027-1.68-.039-2.52-.007-.566.024-1.134-.004-1.7-.01-.188-.157-.366-.225-.555-.145-.4-.37-.797-.399-1.208-.063-.907-.13-1.84.013-2.727.082-.51.194-1.012.185-1.53-.008-.455-.074-.91-.06-1.363.024-.834.126-1.667.122-2.5-.003-.669-.152-1.337-.167-2.007-.013-.596.195-1.12.724-1.476.298-.2.67-.392.819-.687.16-.316.224-.793.11-1.121-.254-.733-.125-1.33.215-1.997.308-.604.424-1.308.652-1.958.138-.393.196-.835.558-1.118a.234.234 0 0 0 .075-.125c.11-.483.214-.968.323-1.452.035-.154.087-.305.12-.46.05-.245.072-.498.14-.737.071-.244.15-.496.282-.708.546-.887 1.186-1.652 2.303-1.81.137-.02.257-.163.38-.28l.075-.065-.075-.128-.263.017-.042-.078c.284-.164.552-.387.857-.48.572-.171 1.167-.265 1.751-.398a.367.367 0 0 0 .18-.112c.362-.411.852-.491 1.35-.525a93.431 93.431 0 0 1 2.57-.138Zm-9.746 39.153.539.469.166.145-.04.097c-.238-.15-.52-.197-.665-.711Zm-4.128-8.543.146.008c.035.176.095.35.101.528.032.823.02 1.65.081 2.469.05.665.181 1.32.276 1.978-.31-.175-.506-.584-.524-1.104-.006-.165.014-.332-.002-.495-.032-.319-.09-.634-.123-.953a10.333 10.333 0 0 1-.049-.827c-.008-.394-.011-.788.001-1.181.005-.142.06-.282.093-.423Zm.568-2.847c.15.261.16 1.555.032 2.039l-.032.096v-2.135Zm-.355-9.966v3.559H434v-3.56h.347Zm3.915-13.526-.606 2.848-.099-.03c.109-.975.135-1.975.705-2.818ZM450.951 138c1.038.598 1.899 1.439 2.625 2.462l.194.283-.075.102L450.95 138Zm6.362 22.78c-.035.1-.01.194.005.29.106.622.257 1.243.298 1.868.026.413-.137.831-.161 1.249-.031.53-.008 1.062-.008 1.576.403-.296.365-.79.344-1.212-.014-.288-.048-.597.065-.862.448-1.051-.267-1.952-.543-2.91" id="prefix-CBY-形状结合" fill="#9C2B2F"/></svg></svg><path d="M445.9 148.6 L447.2 148.6 Q447.2 148.6 447.2 148.6 L447.2 148.6 Q447.2 148.5 447.2 148.4 Q447.2 148.4 447.2 148.3 L447.2 148.3 L447.2 148.2 Q447.2 148.2 447.2 148.1 Q447.2 148 447.2 148 L447.2 148 Q447.2 147.9 447.2 147.9 Q447.2 147.9 447.2 147.8 L447.2 147.8 L447.3 147.8 L447.4 147.8 Q447.5 147.8 447.8 147.8 Q448.1 147.8 448.4 147.9 L448.4 147.9 Q448.5 147.9 448.6 147.9 Q448.7 148 448.8 148 L448.8 148 Q449 148.1 449 148.2 L449 148.2 Q449 148.3 449 148.3 L449 148.3 Q449 148.4 449 148.4 Q449 148.4 449 148.5 L449 148.5 Q449.2 148.5 449.3 148.4 Q449.4 148.4 449.5 148.3 L449.5 148.3 Q449.6 148.3 449.7 148.2 Q449.8 148.2 449.9 148.2 L449.9 148.2 Q449.9 148.2 450 148.2 Q450 148.2 450.1 148.2 L450.1 148.2 Q450.1 148.2 450.1 148.3 Q450.1 148.3 450.2 148.3 L450.2 148.3 L450.5 148.6 Q450.6 148.7 450.6 148.7 Q450.6 148.8 450.6 148.8 L450.6 148.8 Q450.6 148.8 450.7 148.8 Q450.7 148.8 450.7 148.9 L450.7 148.9 Q450.7 148.9 450.7 149 Q450.7 149 450.8 149 L450.8 149 L450.7 149.1 Q450.3 149.1 449.8 149.1 Q449.3 149.1 448.9 149.2 L448.9 149.2 L448.9 149.5 Q449.1 149.5 449.3 149.4 L449.3 149.4 Q449.4 149.3 449.6 149.3 L449.6 149.3 Q449.6 149.3 449.8 149.4 Q449.9 149.5 450.1 149.6 L450.1 149.6 Q450.2 149.7 450.3 149.8 Q450.4 149.9 450.4 150 L450.4 150 L450.4 150.1 Q450.3 150.1 450.3 150.1 Q450.3 150.1 450.3 150.1 L450.3 150.1 L448.9 150.1 Q448.9 150.1 448.9 150.2 Q448.8 150.3 448.9 150.3 L448.9 150.3 Q448.9 150.3 448.9 150.4 Q448.9 150.4 448.9 150.4 L448.9 150.4 L449.3 150.4 Q449.5 150.4 449.7 150.4 L449.7 150.4 Q449.9 150.3 450 150.3 Q450.1 150.3 450.2 150.3 L450.2 150.3 Q450.3 150.3 450.4 150.4 Q450.5 150.5 450.6 150.6 L450.6 150.6 Q450.8 150.7 450.8 150.9 Q450.9 151 450.9 151 L450.9 151 Q450.9 151.1 450.9 151.1 Q450.8 151.1 450.8 151.1 L450.8 151.1 L448.9 151.1 L448.9 151.2 L448.9 151.3 Q448.9 151.3 448.9 151.4 Q448.9 151.5 448.9 151.5 L448.9 151.5 L450.3 152.3 Q450.3 152.3 450.3 152.4 L450.3 152.4 Q450.3 152.5 450.3 152.5 Q450.3 152.6 450.2 152.5 L450.2 152.5 L449.9 152.8 L449.9 154.3 Q449.9 154.4 449.7 154.5 L449.7 154.5 Q449.5 154.6 449.3 154.6 Q449 154.7 448.7 154.7 L448.7 154.7 Q448.6 154.8 448.5 154.8 Q448.4 154.8 448.4 154.8 L448.4 154.8 L448.1 154.8 Q448.1 154.8 448.1 154.7 Q448.1 154.6 448.1 154.6 L448.1 154.6 L448.1 154.5 Q448.1 154.4 448 154.4 L448 154.4 L447.7 154.4 Q447.6 154.4 447.3 154.4 Q447.1 154.4 446.9 154.4 L446.9 154.4 L446.1 154.4 L446.2 154.5 L446.3 154.6 L446.9 154.8 L447 154.9 Q447.2 154.9 447.2 155 Q447.3 155 447.3 155.2 L447.3 155.2 Q447.3 155.4 447.2 155.6 Q447.2 155.8 447 155.9 L447 155.9 Q446.9 156.1 446.7 156.2 Q446.5 156.3 446.3 156.3 L446.3 156.3 Q446.1 156.3 446 156.2 Q445.9 156.1 445.9 156 L445.9 156 Q445.8 155.9 445.8 155.8 Q445.8 155.8 445.8 155.7 L445.8 155.7 Q445.8 155.6 445.8 155.5 Q445.8 155.5 445.7 155.4 L445.7 155.4 Q445.6 155.2 445.5 155 L445.5 155 Q445.3 154.8 445.2 154.5 L445.2 154.5 L445.2 154.5 L443.7 154.5 L443.7 154.5 L443.8 154.6 Q443.9 154.6 444.1 154.7 Q444.2 154.7 444.4 154.8 L444.4 154.8 Q444.7 154.8 445 155 L445 155 Q445 155.3 445 155.6 Q445.1 155.9 445.3 156.1 L445.3 156.1 Q445.7 156.3 446 156.3 Q446.4 156.4 446.7 156.4 L446.7 156.4 Q446.9 156.4 447.1 156.4 Q447.3 156.4 447.3 156.2 L447.3 156.2 Q447.3 156.2 447.4 156.1 Q447.4 156.1 447.4 156 L447.4 156 L447.5 155.7 Q447.6 155.6 447.6 155.5 Q447.6 155.4 447.7 155.3 L447.7 155.3 L447.7 155.1 L447.8 155 L448.2 155 L448.2 155.1 L448.2 155.4 Q448.2 155.7 448.3 156 L448.3 156 Q448.3 156.2 448.4 156.3 L448.4 156.3 Q448.4 156.4 448.6 156.5 L448.6 156.5 Q448.7 156.6 448.8 156.7 Q449 156.8 449 156.9 L449 156.9 Q449.1 157 449.1 157.1 Q449.1 157.2 448.9 157.4 L448.9 157.4 Q448.7 157.5 448.5 157.5 Q448.2 157.6 447.9 157.7 L447.9 157.7 Q447.6 157.7 447.3 157.7 Q447 157.8 446.8 157.8 L446.8 157.8 Q446.6 157.8 446.5 157.8 Q446.5 157.8 446.4 157.8 L446.4 157.8 Q446.1 157.8 445.7 157.7 Q445.2 157.7 444.8 157.6 L444.8 157.6 Q444.3 157.5 444 157.3 Q443.6 157.2 443.5 156.8 L443.5 156.8 L443.4 156.7 L443.3 156.2 Q443.3 156.2 443.3 156.1 Q443.2 156.1 443.2 156.1 L443.2 156.1 Q443.1 155.7 443.1 155.3 Q443.1 154.9 443.1 154.5 L443.1 154.5 Q443 154.5 442.9 154.5 Q442.8 154.5 442.7 154.5 L442.7 154.5 Q442.6 154.5 442.6 154.5 Q442.5 154.5 442.4 154.5 L442.4 154.5 Q442.3 154.5 442.2 154.5 L442.2 154.5 L442.1 154.5 L442 154.5 Q442 154.5 442 154.4 Q442 154.4 442 154.3 L442 154.3 L442 154.2 Q442 154.1 441.9 154.1 L441.9 154.1 Q441.8 154.1 441.8 154 L441.8 154 Q441.8 154 441.8 154 Q441.8 153.9 441.9 153.9 L441.9 153.9 Q442.1 154 442.3 153.9 Q442.5 153.9 442.8 153.9 L442.8 153.9 Q443 153.9 443.2 153.9 Q443.5 153.9 443.7 153.9 L443.7 153.9 Q444.2 153.8 444.8 153.8 Q445.3 153.8 445.9 153.8 L445.9 153.8 Q446.4 153.8 447 153.8 Q447.5 153.8 448.1 153.8 L448.1 153.8 Q448.1 153.7 448.1 153.7 L448.1 153.7 Q448.1 153.6 448.1 153.6 L448.1 153.6 L448.1 153.5 Q447.9 153.5 447.8 153.5 Q447.7 153.5 447.6 153.5 L447.6 153.5 Q446.6 153.5 445.7 153.5 Q444.9 153.5 443.9 153.6 L443.9 153.6 Q443.6 153.6 443.3 153.6 L443.3 153.6 Q443.2 153.6 443 153.6 Q442.8 153.6 442.7 153.6 L442.7 153.6 Q442.6 153.6 442.6 153.6 Q442.5 153.5 442.4 153.4 L442.4 153.4 Q442.4 153.3 442.3 153.2 Q442.3 153.1 442.3 153.1 L442.3 153.1 L442.3 153 Q443.7 153 445.2 152.9 Q446.6 152.9 448.1 152.9 L448.1 152.9 L448.1 152.5 L448 152.5 L447.7 152.5 Q446.7 152.5 445.7 152.5 Q444.6 152.5 443.6 152.5 L443.6 152.5 Q443.3 152.5 442.9 152.6 L442.9 152.6 Q442.6 152.6 442.2 152.6 L442.2 152.6 L442.2 152.6 L441.7 152 L441.8 152 L442.4 152 Q442.7 152 443 152 Q443.2 152 443.4 152 L443.4 152 Q443.9 151.9 444.4 151.9 Q444.8 151.9 445.3 151.9 L445.3 151.9 Q445.7 151.9 446.2 151.9 Q446.6 151.9 447.1 151.9 L447.1 151.9 Q447.1 151.9 447.1 151.8 L447.1 151.8 L447.1 151.7 Q447.1 151.7 447.1 151.6 Q447.1 151.6 447.1 151.5 L447.1 151.5 L447.1 151.2 L446.3 151.2 Q446.2 151.2 446.2 151.1 L446.2 151.1 Q446.1 151.1 446.1 151 Q446 150.9 446 150.8 L446 150.8 Q446 150.7 446 150.7 L446 150.7 Q446 150.6 446 150.6 L446 150.6 L446.5 150.6 Q446.6 150.6 446.7 150.6 Q446.8 150.6 446.9 150.6 L446.9 150.6 L447.1 150.6 L447.1 150.5 L447.1 150.2 L446.5 150.2 L446.4 150.2 Q446.4 150.1 446.3 149.9 Q446.2 149.8 446.2 149.7 L446.2 149.7 L446.2 149.6 L447.1 149.6 Q447.2 149.6 447.2 149.5 Q447.2 149.4 447.2 149.3 L447.2 149.3 Q447.2 149.3 447.2 149.3 L447.2 149.3 Q447.2 149.2 447.1 149.2 L447.1 149.2 Q447.1 149.2 447 149.2 Q446.9 149.2 446.7 149.2 L446.7 149.2 Q446.6 149.2 446.5 149.3 Q446.4 149.3 446.3 149.3 L446.3 149.3 L446.3 149.3 Q446.2 149.3 446.2 149.2 L446.2 149.2 L446.1 149.1 L446 149 Q446 148.9 445.9 148.9 Q445.9 148.8 445.9 148.7 L445.9 148.7 L445.9 148.6 M442.8 147.8 Q442.8 147.8 442.8 147.8 L442.8 147.8 Q442.9 147.8 442.9 147.8 L442.9 147.8 Q443 147.8 443.3 147.8 Q443.6 147.8 443.9 147.9 L443.9 147.9 Q444 147.9 444.2 147.9 Q444.3 148 444.4 148 L444.4 148 Q444.6 148.1 444.6 148.2 L444.6 148.2 Q444.6 148.3 444.6 148.3 L444.6 148.3 L444.5 148.5 Q444.5 148.5 444.5 148.6 L444.5 148.6 Q444.6 148.6 444.7 148.6 Q444.8 148.5 444.8 148.5 L444.8 148.5 Q444.9 148.4 445.1 148.4 L445.1 148.4 Q445.2 148.4 445.3 148.5 L445.3 148.5 Q445.4 148.6 445.6 148.7 Q445.7 148.9 445.8 149 L445.8 149 Q446 149.1 445.9 149.2 L445.9 149.2 L445.9 149.3 L444.4 149.3 L444.4 149.6 L444.9 149.4 L445 149.4 Q445.1 149.4 445.2 149.5 Q445.4 149.5 445.5 149.6 L445.5 149.6 Q445.6 149.8 445.7 149.9 Q445.8 150 445.8 150.1 L445.8 150.1 Q445.8 150.2 445.8 150.2 L445.8 150.2 Q445.7 150.2 445.5 150.2 Q445.4 150.2 445.1 150.2 L445.1 150.2 L444.5 150.2 L444.5 150.2 L444.4 150.3 L444.4 150.5 Q444.5 150.5 444.5 150.5 Q444.5 150.5 444.5 150.5 L444.5 150.5 Q444.6 150.6 444.7 150.6 L444.7 150.6 Q444.7 150.6 444.7 150.5 L444.7 150.5 Q444.8 150.5 444.8 150.5 L444.8 150.5 L444.9 150.4 Q445 150.4 445 150.4 L445 150.4 L445.1 150.3 Q445.3 150.4 445.4 150.5 Q445.6 150.6 445.7 150.6 L445.7 150.6 Q445.7 150.7 445.8 150.8 Q445.9 150.9 446 151.1 L446 151.1 L446 151.2 Q446 151.2 446 151.2 Q446 151.2 446 151.2 L446 151.2 L444.6 151.2 Q444.5 151.2 444.4 151.3 Q444.4 151.3 444.4 151.3 L444.4 151.3 Q444.4 151.4 444.4 151.5 L444.4 151.5 Q444.4 151.5 444.3 151.6 L444.3 151.6 Q444.2 151.7 444 151.8 Q443.8 151.8 443.6 151.9 L443.6 151.9 Q443.3 151.9 443.1 151.9 Q442.8 151.9 442.7 151.9 L442.7 151.9 L442.7 151.3 Q442.5 151.3 442.4 151.3 Q442.2 151.3 442 151.3 L442 151.3 Q441.9 151.3 441.7 151.3 Q441.5 151.3 441.4 151.3 L441.4 151.3 Q441.4 151.3 441.3 151.2 Q441.2 151.2 441.2 151.1 L441.2 151.1 Q441.1 151 441.1 150.9 Q441 150.8 441 150.8 L441 150.8 Q441 150.7 441.1 150.7 L441.1 150.7 L442.7 150.7 L442.7 150.3 L442.6 150.3 Q442.5 150.3 442.4 150.3 Q442.3 150.3 442.2 150.3 L442.2 150.3 Q442.1 150.3 442 150.3 Q441.8 150.3 441.8 150.3 L441.8 150.3 L441.7 150.3 Q441.6 150.3 441.5 150.2 Q441.5 150.2 441.5 150.1 L441.5 150.1 Q441.4 150 441.4 149.9 L441.4 149.9 L441.3 149.8 L441.3 149.8 Q441.3 149.7 441.4 149.7 L441.4 149.7 L442.7 149.7 L442.7 149.3 Q442.6 149.3 442.5 149.3 Q442.3 149.3 442.1 149.3 L442.1 149.3 Q442 149.3 441.8 149.3 Q441.6 149.3 441.6 149.3 L441.6 149.3 L441.3 149.3 L441.2 149.1 Q441.1 148.9 441.1 148.9 L441.1 148.9 L441 148.8 Q441 148.8 441 148.7 L441 148.7 L442.7 148.7 Q442.7 148.7 442.7 148.7 L442.7 148.7 Q442.7 148.7 442.7 148.6 L442.7 148.6 L442.7 148.4 Q442.7 148.3 442.7 148.3 Q442.7 148.2 442.8 148.1 L442.8 148.1 L442.8 147.8 M440.8 156.1 Q440.9 156 441.1 155.9 Q441.3 155.8 441.5 155.6 L441.5 155.6 Q441.7 155.5 441.8 155.4 Q441.9 155.3 442 155 L442 155 L442 154.8 Q442 154.7 442.1 154.7 L442.1 154.7 Q442.1 154.7 442.2 154.7 L442.2 154.7 Q442.4 154.7 442.4 154.8 Q442.5 154.8 442.5 155 L442.5 155 Q442.5 155.3 442.7 155.4 L442.7 155.4 Q442.7 155.7 442.7 155.9 L442.7 155.9 Q442.7 156.1 442.7 156.3 Q442.7 156.6 442.6 156.8 L442.6 156.8 Q442.6 157 442.4 157.2 Q442.3 157.3 442.1 157.5 L442.1 157.5 Q442.1 157.5 441.9 157.6 L441.9 157.6 Q441.8 157.6 441.7 157.6 Q441.5 157.6 441.4 157.5 L441.4 157.5 Q441.2 157.3 441.1 157.1 Q441 156.9 440.9 156.7 L440.9 156.7 Q440.8 156.5 440.8 156.3 L440.8 156.3 L440.8 156.1 M448.8 154.8 Q448.8 154.8 448.9 154.8 L448.9 154.8 Q448.9 154.8 448.9 154.8 L448.9 154.8 Q449.3 154.8 449.5 154.9 Q449.8 155.1 450.1 155.2 L450.1 155.2 Q450.5 155.4 450.7 155.6 Q451 155.8 451 156.3 L451 156.3 Q451 156.5 450.9 156.6 Q450.8 156.8 450.6 157 L450.6 157 Q450.5 157.1 450.3 157.2 Q450.1 157.4 449.9 157.4 L449.9 157.4 Q449.7 157.2 449.6 157 Q449.5 156.7 449.5 156.5 L449.5 156.5 Q449.4 156.3 449.3 156.1 Q449.2 155.9 449.1 155.7 L449.1 155.7 Q449.1 155.7 449.1 155.6 Q449 155.6 449 155.6 L449 155.6 Q448.9 155.5 448.9 155.4 Q448.8 155.3 448.7 155.2 L448.7 155.2 Q448.7 155.2 448.7 155.1 L448.7 155.1 Q448.7 155 448.7 154.9 L448.7 154.9 Q448.8 154.9 448.8 154.8 L448.8 154.8 M447.2 151.9 L447.7 151.9 Q447.8 151.9 447.9 151.9 Q448 151.9 448 151.9 L448 151.9 Q448.1 151.8 448.1 151.8 L448.1 151.8 L448.1 151.8 Q447.9 151.8 447.7 151.8 Q447.5 151.8 447.3 151.8 L447.3 151.8 L447.2 151.9 Z" style="" fill="#ffffff" transform="matrix(1,0,0,1,0,0)"/><path d="M446.7 165.4 Q447 164.9 447.2 164.3 Q447.5 163.8 447.7 163.2 L447.7 163.2 Q447.7 163.1 447.7 163 Q447.8 162.9 448 162.9 L448 162.9 Q448.2 162.9 448.5 163 Q448.7 163.1 449 163.2 L449 163.2 Q449.2 163.4 449.5 163.5 Q449.7 163.7 449.8 163.9 L449.8 163.9 L449.8 163.9 Q449.8 164 449.7 164.1 Q449.6 164.1 449.5 164.2 L449.5 164.2 L449.3 164.2 Q449.3 164.2 449.2 164.3 Q449.2 164.3 449.2 164.3 L449.2 164.3 Q448.9 164.6 448.6 164.9 Q448.2 165.1 448 165.4 L448 165.4 L448.9 165.4 Q448.9 165.4 449 165.3 Q449.1 165.2 449.2 165.1 L449.2 165.1 Q449.3 165 449.4 164.8 Q449.5 164.7 449.6 164.6 L449.6 164.6 L449.6 164.6 Q449.6 164.6 449.8 164.8 L449.8 164.8 Q450 164.9 450.2 165 Q450.4 165.2 450.6 165.4 L450.6 165.4 Q450.8 165.6 451 165.8 Q451.2 166 451.3 166.1 L451.3 166.1 Q451.4 166.3 451.4 166.3 L451.4 166.3 Q451.4 166.4 451.3 166.5 Q451.2 166.6 451.1 166.7 L451.1 166.7 L450.5 166.7 Q450.4 166.7 450.4 166.7 Q450.3 166.7 450.3 166.7 L450.3 166.7 Q450.2 166.7 450.2 166.7 Q450.1 166.7 450.1 166.7 L450.1 166.7 Q450 166.7 450 166.7 L450 166.7 Q449.8 166.7 449.7 166.8 Q449.5 166.9 449.4 167 L449.4 167 Q449.3 167.1 449.2 167.2 Q449.1 167.3 449 167.3 L449 167.3 Q448.9 167.3 448.9 167.3 Q448.8 167.3 448.8 167.3 L448.8 167.3 Q448.8 167.4 449 167.5 Q449.1 167.7 449.2 167.8 L449.2 167.8 L449.2 167.8 Q449.2 167.8 449.1 167.9 Q449.1 168 449 168 L449 168 L448 168 Q447.9 168 447.7 168 Q447.5 168.1 447.4 168.1 L447.4 168.1 Q447.2 168.2 447.1 168.3 Q446.9 168.4 446.9 168.4 L446.9 168.4 Q447.1 168.4 447.2 168.6 L447.2 168.6 Q447.1 168.7 447.1 168.8 Q447.1 169 447.1 169.1 L447.1 169.1 L447.5 169.1 Q447.5 169.1 447.6 169.1 Q447.6 169.1 447.7 169.1 L447.7 169.1 Q447.8 169.1 447.9 169.1 Q448 169.1 448.1 169 L448.1 169 Q448.2 169 448.3 169 Q448.4 169 448.4 169 L448.4 169 L448.7 169 Q448.8 169 448.8 169 Q448.9 169 449 169 L449 169 Q449 169 449 169 L449 169 L449.8 168.3 L449.9 168.3 Q450 168.3 450.2 168.5 Q450.4 168.7 450.6 168.9 L450.6 168.9 Q450.8 169.1 450.9 169.3 Q451.1 169.6 451.1 169.7 L451.1 169.7 L451.1 169.8 L451 169.8 L447.7 169.8 L447.5 169.9 Q447.4 169.9 447.4 169.9 Q447.3 169.9 447.2 169.9 L447.2 169.9 Q447.2 169.9 447.1 169.9 L447.1 169.9 L447.1 169.9 L447 169.9 L447 171.2 Q447 171.6 446.9 171.9 Q446.8 172.3 446.5 172.5 L446.5 172.5 Q446.4 172.5 446.3 172.5 Q446.1 172.6 446 172.6 L446 172.6 Q445.9 172.7 445.9 172.7 Q445.8 172.7 445.7 172.8 L445.7 172.8 L445.3 172.9 Q445.3 172.9 445.2 172.9 Q445.2 172.9 445.2 172.9 L445.2 172.9 L445 172.9 Q444.8 172.9 444.8 172.9 Q444.7 172.8 444.7 172.6 L444.7 172.6 Q444.7 172.6 444.7 172.5 Q444.7 172.5 444.7 172.4 L444.7 172.4 Q444.7 172.2 444.6 172.1 Q444.5 172 444.3 172 L444.3 172 Q444.2 171.9 444.1 171.8 Q444 171.8 443.9 171.7 L443.9 171.7 L443.5 171.5 Q443.3 171.5 443.3 171.4 L443.3 171.4 Q443.3 171.3 443.4 171.2 Q443.5 171.1 443.6 171.1 L443.6 171.1 L443.7 171.1 Q444 171.1 444.2 171.1 L444.2 171.1 Q444.4 171.2 444.6 171.2 L444.6 171.2 L444.8 171.2 Q445 171.1 445 170.9 Q445.1 170.7 445.1 170.5 L445.1 170.5 Q445.1 170.5 445.1 170.4 Q445.1 170.3 445.1 170.2 L445.1 170.2 Q445 170.1 445 170 Q445 169.9 445 169.8 L445 169.8 Q444.5 169.8 444.1 169.8 Q443.6 169.8 443.1 169.9 L443.1 169.9 Q442.7 169.9 442.2 169.9 Q441.8 169.9 441.3 169.9 L441.3 169.9 L441.2 169.9 L440.9 169.3 L440.9 169.1 Q441.4 169.1 441.9 169.1 Q442.4 169.1 442.9 169.1 L442.9 169.1 Q443.4 169.1 443.9 169.1 Q444.4 169.1 444.9 169.1 L444.9 169.1 L445 169 L445 168.9 Q445 168.8 445 168.7 Q445 168.6 445 168.6 L445 168.6 Q444.9 168.5 444.9 168.4 Q444.9 168.3 444.9 168.2 L444.9 168.2 Q444.9 168.2 444.9 168.1 L444.9 168.1 Q444.9 168.1 445 168.1 L445 168.1 L445.2 168.1 Q445.3 168.1 445.4 168.1 Q445.5 168.1 445.6 168.1 L445.6 168.1 Q445.7 168.2 445.9 168.2 Q446 168.2 446.1 168.2 L446.1 168.2 Q446.1 168.2 446.2 168.1 Q446.2 168.1 446.3 168 L446.3 168 Q446.3 168 446.3 167.9 Q446.3 167.9 446.3 167.8 L446.3 167.8 Q446.3 167.8 446.3 167.8 Q446.3 167.8 446.4 167.7 L446.4 167.7 L446.3 167.7 L446.1 167.7 Q445.8 167.7 445.4 167.7 Q445.1 167.7 444.8 167.7 L444.8 167.7 Q444.1 167.8 443.4 167.8 L443.4 167.8 Q443.3 167.8 443.2 167.7 Q443.1 167.6 443 167.5 L443 167.5 Q442.9 167.4 442.9 167.3 L442.9 167.3 Q442.9 167.3 442.8 167.2 Q442.8 167.2 442.7 167.2 L442.7 167.2 Q442.7 167.2 442.7 167.3 Q442.6 167.4 442.6 167.5 L442.6 167.5 Q442.5 167.6 442.4 167.7 Q442.3 167.8 442.2 167.9 L442.2 167.9 Q442.1 168 441.9 168 L441.9 168 Q441.7 168 441.5 167.9 Q441.3 167.7 441.2 167.5 L441.2 167.5 Q441.1 167.3 441 167 Q440.9 166.8 440.9 166.6 L440.9 166.6 Q440.9 166.6 440.9 166.5 Q441 166.4 441 166.3 L441 166.3 Q441.1 166.3 441.2 166.3 L441.2 166.3 Q441.2 166.2 441.3 166.1 L441.3 166.1 L441.5 166 Q441.6 166 441.6 165.9 Q441.6 165.9 441.6 165.9 L441.6 165.9 Q441.8 165.8 441.9 165.6 Q441.9 165.4 442 165.3 L442 165.3 L442.1 165 Q442.2 164.9 442.3 164.9 L442.3 164.9 Q442.4 164.9 442.4 164.9 Q442.5 165 442.6 165.1 L442.6 165.1 Q442.6 165.2 442.6 165.3 L442.6 165.3 L442.7 165.5 L442.7 165.6 L443.3 165.6 Q443.3 165.4 443.2 165.3 L443.2 165.3 Q443.1 165.3 443.1 165.2 Q443.1 165.1 443.1 165.1 L443.1 165.1 Q443 165 443 164.9 L443 164.9 L442.8 164.2 L442.7 164 Q442.7 164 442.7 163.9 Q442.7 163.8 442.6 163.6 L442.6 163.6 L442.5 163.4 L442.4 163.3 Q442.4 163.3 442.4 163.2 L442.4 163.2 Q442.4 163.2 442.4 163.2 L442.4 163.2 Q442.4 163.1 442.5 163 Q442.5 163 442.6 163 L442.6 163 L442.7 163 Q442.7 163 442.7 163 L442.7 163 L442.8 163 L442.8 163 L443 163.1 Q443.2 163.1 443.3 163.2 Q443.4 163.2 443.5 163.2 L443.5 163.2 L443.6 163.3 Q443.7 163.4 443.9 163.5 Q444.1 163.6 444.3 163.7 L444.3 163.7 Q444.5 163.9 444.6 164 Q444.8 164.2 444.8 164.4 L444.8 164.4 Q444.8 164.7 444.6 164.8 Q444.4 165 444.2 165.1 L444.2 165.1 Q444.1 165.2 444 165.2 Q443.9 165.3 443.8 165.3 L443.8 165.3 Q443.7 165.4 443.7 165.4 Q443.6 165.5 443.6 165.5 L443.6 165.5 L444.1 165.5 Q444.8 165.5 445.4 165.5 Q446 165.5 446.7 165.4 L446.7 165.4 M442.8 166.6 Q442.8 166.7 442.8 166.8 Q442.8 166.9 442.8 166.9 L442.8 166.9 L442.8 167 Q443.1 167 443.3 167 Q443.6 167 443.8 167 L443.8 167 Q444.2 167 444.5 167 Q444.9 167 445.2 167 L445.2 167 Q445.6 167 446 167 Q446.3 167 446.7 167 L446.7 167 L446.8 166.9 Q446.9 166.7 447.1 166.5 Q447.2 166.3 447.5 166.2 L447.5 166.2 L447.7 166.5 Q447.7 166.5 447.9 166.6 Q448 166.7 448.2 166.8 L448.2 166.8 Q448.3 166.9 448.4 167 Q448.5 167.1 448.6 167.1 L448.6 167.1 L448.6 167.1 L448.6 167 L448.6 166.9 Q448.6 166.8 448.6 166.7 Q448.7 166.6 448.7 166.6 L448.7 166.6 Q448.8 166.4 448.8 166.2 L448.8 166.2 Q448 166.2 447.3 166.2 Q446.6 166.2 445.8 166.2 L445.8 166.2 Q445.1 166.2 444.3 166.2 Q443.6 166.2 442.8 166.3 L442.8 166.3 L442.8 166.6 M444.7 163 Q444.7 163 444.8 162.9 Q445 162.8 445 162.8 L445 162.8 L445.1 162.8 Q445.2 162.9 445.6 163 Q445.9 163.1 446.2 163.3 L446.2 163.3 Q446.5 163.5 446.7 163.7 Q446.9 163.9 446.9 164.2 L446.9 164.2 Q446.9 164.3 446.8 164.5 Q446.6 164.7 446.4 164.8 L446.4 164.8 Q446.2 165 446 165.1 Q445.7 165.3 445.6 165.3 L445.6 165.3 Q445.5 165.3 445.4 165.2 Q445.3 165 445.3 165 L445.3 165 Q445.3 165 445.3 164.8 L445.3 164.8 Q445.2 164.7 445.2 164.6 L445.2 164.6 L445.2 164.4 Q445.2 164.4 445.2 164.3 Q445.2 164.3 445.2 164.3 L445.2 164.3 Q445.2 164.2 445.1 164.2 L445.1 164.2 Q445.1 164.1 445.1 164.1 Q445.1 164 445.1 164 L445.1 164 Q445.1 163.9 445.1 163.9 L445.1 163.9 Q445 163.8 445 163.7 Q444.9 163.6 444.9 163.4 L444.9 163.4 Q444.8 163.3 444.8 163.2 Q444.7 163.1 444.7 163 L444.7 163 Z" style="" fill="#ffffff" transform="matrix(1,0,0,1,0,0)"/></g>
            <g id="icon_name_and_slogan_gap">
            </g>
            <g class="name_and_slogan" id="name_and_slogan_id">
              <g class="name"><g id="nameDefaultGroup"><path d="M244.9 119.8 Q249.3 119.7 250 119.8 Q250.7 120 251.3 119.8 Q251.9 119.7 253 119.7 Q254.2 119.8 254.8 120.2 Q255.4 120.6 256.7 121.3 L256.7 121.3 L257.6 122.5 L256.5 125.5 L256.8 126.2 Q256.9 126.2 257 126.2 Q257.2 126.2 257.9 126.7 Q258.7 127.1 260 128.3 L260 128.3 Q260.7 129 261.1 129.3 Q261.4 129.5 261.5 129.9 Q261.5 130.4 261.8 131.3 L261.8 131.3 L260.8 132.3 L258.1 133.6 Q257.9 133.9 258.1 134.3 L258.1 134.3 L258.7 134.4 L258.3 134.8 Q257.7 134.8 257.5 134.7 Q257.2 134.6 257 134.7 Q256.9 134.8 256.7 134.9 L256.7 134.9 L256.9 134.9 L256.4 135.2 L256.6 134.8 L255.1 135.2 Q255.1 135.3 255.2 135.4 Q255.2 135.4 255.1 135.7 Q255 136 254.8 136.8 L254.8 136.8 Q255 136.8 255 136.7 Q255.1 136.7 255.3 136.8 Q255.4 136.9 255.7 136.9 L255.7 136.9 L256.5 137.8 L255.8 136.6 L259.6 139.9 L259.6 140.4 L259.1 140.4 L258.9 140.5 Q258.1 140.9 257.6 141.2 Q257.2 141.4 256.9 141.4 Q256.6 141.4 256.4 141.6 Q256.2 141.7 256.1 141.8 Q255.9 141.9 255.7 141.9 L255.7 141.9 L255.2 142.4 L254.2 143 L253.5 146.4 Q259.5 144.6 260.6 144.5 Q261.8 144.4 262.2 144.3 Q262.7 144.1 263.5 143.9 L263.5 143.9 L263.6 143.7 L264 143.5 L263.8 143.1 Q264.1 143.1 264.2 143.2 Q264.3 143.2 266 142.8 Q267.6 142.4 268.5 142.8 Q269.4 143.1 269.6 143.4 Q269.9 143.7 270.4 144.1 L270.4 144.1 Q270.9 145.3 271 145.6 Q271.1 146 271.3 146.3 Q271.5 146.6 271.7 147.3 Q271.8 147.9 272.1 148.2 Q272.3 148.4 272.4 148.6 Q272.5 148.9 272.4 149.4 Q272.3 149.9 272.6 150.6 Q272.9 151.3 273 152.3 Q273 153.2 272.9 153.3 Q272.8 153.4 272.7 153.6 L272.7 153.6 L272.8 153.6 Q272.3 154.5 271.8 155.2 L271.8 155.2 Q271.2 155.3 270.8 155.4 Q270.4 155.5 269.2 156.1 Q268 156.6 266.4 156.8 Q264.8 157 264.5 157 Q264.3 157 264 157 L264 157 L264.1 156.9 L262.9 156.8 L263.1 156.6 Q262.9 156.6 262.7 156.6 Q262.5 156.6 261.4 156.8 Q260.4 157 259.4 157 Q258.3 157 258.1 157 Q258 156.9 257.9 156.9 L257.9 156.9 L257.7 157 Q256.7 157.1 256.3 157.1 Q255.9 157.1 255.5 157.3 Q255.1 157.4 253.9 157.4 Q252.7 157.4 252.4 157.5 Q252.2 157.6 251.9 157.7 L251.9 157.7 Q251.8 158.5 251.7 158.9 Q251.6 159.3 251.6 159.4 Q251.6 159.6 251.8 159.7 L251.8 159.7 L251.4 160.1 L251.5 159.1 L251.3 159.2 Q251.3 159.8 250.8 160.1 L250.8 160.1 L251 159 L251.5 159 L251.6 157.8 L251 158.1 Q250.8 158.9 250.7 159.4 Q250.6 160 250.5 160.2 L250.5 160.2 L251.1 160.6 L251.5 160.2 L251.5 160.7 Q256.7 164.3 257.7 164.8 Q258.8 165.3 260.4 166.3 L260.4 166.3 L261.3 167.1 L262.9 168.4 L262.6 168.5 L263.7 169.3 L263.5 169.9 L263.7 170.1 Q263.4 171.1 262.7 171.8 L262.7 171.8 L263.1 172.2 L262.7 172.9 L262 173.2 Q262.3 173.5 262.6 174.1 L262.6 174.1 L261.5 174.2 L261.6 175.1 L260.5 175.3 L260.3 175.2 L260 175.3 Q258.2 178.8 257.5 179.4 Q256.8 180 256.8 180.5 Q256.8 181.1 256.6 181.4 Q256.4 181.6 256 182.2 Q255.7 182.8 255.2 183.3 Q254.6 183.8 254.6 184.7 Q254.5 185.6 254 186.1 Q253.5 186.7 253.2 187.7 Q252.9 188.8 252.5 189.3 Q252.1 189.9 251.5 191.4 L251.5 191.4 L250.8 191.8 Q251.1 191.5 251.4 191.3 Q251.6 191.1 252.1 189.7 Q252.6 188.3 253 187.3 Q253.5 186.4 253.7 184.3 Q253.8 182.3 253.7 182.2 Q253.6 182.1 253.5 182 L253.5 182 Q253.3 183.4 253 183.9 Q252.8 184.5 252.6 185.7 Q252.4 186.9 251.7 188.4 Q251 189.9 250.9 190.3 Q250.8 190.6 250.7 191.3 L250.7 191.3 L250.3 191.5 Q250.1 191.9 250.1 192.4 Q250.1 192.9 250.1 193.3 L250.1 193.3 Q249.8 193.3 249.6 193.3 Q249.5 193.3 249.2 193.4 Q249 193.6 248.6 193.6 Q248.2 193.6 247.8 193.5 Q247.4 193.5 246.8 193.4 L246.8 193.4 L246.7 193.9 L246 194.3 L246.5 194.3 Q246.1 194.5 246 194.6 Q245.8 194.6 245.5 194.9 Q245.2 195.2 243.6 195.7 Q242 196.2 241.3 196.2 Q240.6 196.2 240.4 196.4 Q240.3 196.6 240 196.7 L240 196.7 L240 196.6 Q239.7 196.8 239.5 197 Q239.3 197.2 239.3 197.4 Q239.3 197.6 239.1 197.9 Q238.9 198.1 238.5 198.7 L238.5 198.7 L239.1 198.5 L238.6 199.5 L240.3 198.5 Q239.9 199.2 239.7 199.6 Q239.6 199.9 239.5 200.2 L239.5 200.2 L240.1 199.7 L240.3 199.9 Q237.8 202.9 237.7 203.3 Q237.5 203.6 237.3 204.1 L237.3 204.1 Q237.4 204.4 237.5 204.5 Q237.6 204.6 237.5 204.8 Q237.4 204.9 237.3 205.2 L237.3 205.2 L237.6 205.1 L237.5 205.4 L237.6 205.7 L237.5 206.5 L237.7 206.5 L237.5 207.2 L238.1 207.4 L238.2 207.7 L237.3 208.8 L236.7 209.1 L236.9 209.6 Q241.6 209.1 242.7 208.8 Q243.7 208.6 245.2 208.2 L245.2 208.2 L245.6 207.5 L245.1 207.3 L245.2 207.2 L245.2 206.8 L244.9 207.3 L245.1 206.2 L245.3 206.2 L245.1 206 Q246.6 202.3 246.4 201.5 Q246.1 200.7 246.4 200 Q246.6 199.4 246.4 199.1 Q246.1 198.8 246 198.2 L246 198.2 L246.1 197.9 L246.8 198.2 L246.9 198 L249.2 201.4 Q249.7 201.8 250.4 201.5 L250.4 201.5 Q251 202.6 251.2 202.9 Q251.5 203.3 251.8 203.5 Q252 203.7 252.6 204.3 L252.6 204.3 L253.1 204.6 L253.6 205.1 L254.5 205.1 L255.1 206.6 L255.9 207.3 L256.2 207.1 L256.4 207.4 Q256.6 207.4 256.6 207.4 Q256.7 207.4 256.9 207.5 Q257 207.6 257.4 207.7 L257.4 207.7 L258.5 209 Q259.1 209.5 259.4 209.6 Q259.6 209.8 259.8 209.8 Q260 209.8 260.6 209.8 L260.6 209.8 L261.3 210.9 Q261.6 211 261.8 211 Q261.9 211.1 262.3 211.4 Q262.7 211.7 263.1 211.8 Q263.5 212 263.7 212.1 Q264 212.2 264.3 212.3 L264.3 212.3 L264.2 212.9 L265.1 213.3 L264.9 213.8 L265.2 213.7 L265.6 214 L265 214.8 L265.4 214.9 Q265.7 215.4 266.1 216 L266.1 216 L266 216.3 Q265.6 216.7 265.3 217.1 Q265 217.4 263.7 218 Q262.5 218.7 260.5 219.6 Q258.5 220.5 255.7 221.2 Q252.9 221.9 250.1 222.3 Q247.3 222.7 244.8 222.7 Q242.3 222.7 239.3 222.2 Q236.2 221.7 233.2 221 Q230.3 220.4 227.6 219.4 Q224.9 218.3 222.1 215.3 L222.1 215.3 Q220.9 213.8 220.2 213.1 Q219.6 212.3 216.8 207.1 L216.8 207.1 Q217 207.3 217.4 207.2 L217.4 207.2 L217 206.4 Q217.1 206.5 219.6 207.7 Q222.1 208.9 224.4 209.4 Q226.7 209.9 231.4 209.8 L231.4 209.8 L230.8 209.4 Q230.3 208.4 230.1 208.1 Q230 207.9 229.6 207.5 Q229.2 207.1 229 206.4 Q228.8 205.8 229.2 205.3 Q229.6 204.9 229.8 204.1 Q230 203.4 230.4 202.6 Q230.8 201.9 230.8 201.6 Q230.8 201.4 230.8 201.1 L230.8 201.1 L231.1 200.8 L230.9 200.4 Q230.7 200.5 228.2 201.5 Q225.7 202.5 223.8 203.4 Q222 204.4 220.4 204.9 Q218.9 205.4 218.1 205.2 Q217.4 205 217 204.8 Q216.6 204.5 215.6 203.9 L215.6 203.9 L214.7 203.1 Q213.1 202 211.7 200.6 L211.7 200.6 L210.5 198.7 L210.7 198.7 L210.5 198.3 L211.4 198.2 L211.2 198.1 L211.9 197.9 L211.1 196.8 L211.2 196.6 Q212.9 195.9 213.3 195.6 Q213.7 195.3 214.6 195.3 Q215.4 195.3 221.7 192.3 L221.7 192.3 Q220.5 191.6 220.1 191.5 Q219.7 191.3 218.6 191 Q217.5 190.6 216.2 190 L216.2 190 L215.3 188.8 L215.5 187.4 Q216.9 186.6 217.8 186 Q218.8 185.4 221.6 183.9 Q224.5 182.4 227.4 181.2 Q230.3 180 231.2 179.9 Q232.2 179.7 232.8 179.7 Q233.5 179.8 233.8 179.7 Q234.1 179.7 234.7 179.7 L234.7 179.7 L235.4 180.3 L235.5 180.5 L236.1 180.7 Q236.4 181.1 236.6 181.3 Q236.8 181.5 236.7 181.9 Q236.6 182.2 236.6 182.3 Q236.7 182.4 236.8 182.7 L236.8 182.7 Q236.9 182.7 236.9 182.6 Q236.9 182.6 237.3 182.7 Q237.6 182.8 238.2 182.9 L238.2 182.9 L238 183.1 Q237.6 183.6 237.4 183.8 Q237.2 183.9 237.1 184.5 Q237 185 236.8 185.1 Q236.5 185.3 235.9 185.9 L235.9 185.9 Q233.2 187.5 230.4 189.1 L230.4 189.1 L230.7 189.2 Q235.2 187.7 235.8 187.7 Q236.5 187.7 236.7 187.6 Q236.9 187.4 237.3 187.3 Q237.7 187.2 238.8 186.8 L238.8 186.8 L238.5 186.7 L239.9 186.5 Q240 185.1 240.6 181.8 Q241.2 178.4 242.1 172.6 L242.1 172.6 Q236.9 174.1 236.5 174.4 Q236 174.7 235.6 174.7 Q235.2 174.6 234.7 175 Q234.2 175.3 233.2 175.7 Q232.2 176 231.6 176.5 Q231.1 176.9 230.2 177.2 Q229.3 177.4 228.8 177.7 Q228.3 178.1 227 178.5 L227 178.5 L226.9 179 L228.2 178.5 L228.4 178.9 L228.2 179.3 Q226.9 180.1 226.2 180.5 Q225.4 180.8 224.4 181.7 Q223.5 182.6 221.6 183.7 Q219.7 184.9 217.7 185.7 Q215.6 186.6 215.4 186.4 Q215.1 186.2 215 186.4 Q215 186.5 214.7 186.5 L214.7 186.5 Q213.7 185.9 213.1 185.7 Q212.5 185.4 212.1 185.1 Q211.6 184.7 210.5 183.9 L210.5 183.9 Q210.5 183.9 210.4 184 Q210.4 184.1 210.1 183.9 Q209.8 183.7 209.2 183.4 L209.2 183.4 L210.1 183.4 L210.1 183.2 L209.8 183.1 L209.7 182.9 L209.2 182.7 L209 182.9 L208.6 182.7 Q208.4 182.2 208.4 182 Q208.4 181.9 208.2 181.8 Q207.9 181.6 207.6 181 Q207.3 180.4 207.1 180.1 L207.1 180.1 L206.8 180 Q206.7 179.6 206.7 179.2 Q206.7 178.9 206.3 178.6 Q206 178.4 205.4 177.5 L205.4 177.5 Q205.6 177.4 205.8 177.3 Q205.9 177.3 206.3 177.3 Q206.7 177.3 208.6 176.2 Q210.6 175.1 211.3 175.1 Q212 175.1 212.4 174.8 Q212.9 174.5 214.5 173.7 L214.5 173.7 L213.5 174.5 L215.3 173.6 L215 173.6 L214.6 172.9 L213.7 172 Q213.2 170.9 212.8 169.8 L212.8 169.8 L212.2 169.6 L211.5 167.8 Q210.9 168.2 210.7 168.3 Q210.5 168.4 209.9 168.9 Q209.3 169.4 206.9 171.3 Q204.5 173.2 203.2 173.6 Q202 174.1 201.3 174 Q200.6 173.9 200.1 173.6 Q199.7 173.2 198.5 172.3 L198.5 172.3 Q197.7 171.5 196.5 169.6 Q195.3 167.7 195 166.5 Q194.7 165.3 194.8 165.1 Q194.9 165 195.2 164.6 L195.2 164.6 L195.6 164.5 L195.3 163.6 Q195.5 163.7 195.6 163.8 Q195.8 163.8 196.5 163.7 Q197.2 163.6 199.6 162.1 Q202 160.6 203.7 160 Q205.5 159.3 210.6 156.8 L210.6 156.8 L210.6 155.6 Q209.7 156.2 209.2 156.6 Q208.8 156.9 208 157 Q207.3 157 205.9 157.6 L205.9 157.6 L203.5 155.2 Q202.5 153.8 202.1 153.3 Q201.7 152.8 201.6 152.3 Q201.5 151.9 201.4 150.8 L201.4 150.8 L202 150.9 Q202 150.8 202 150.7 Q202 150.6 201.9 150.5 Q201.9 150.5 201.7 150.2 L201.7 150.2 Q207.1 147.3 208.1 147.1 Q209 146.9 209.5 146.7 Q210 146.4 211.1 145.9 L211.1 145.9 L211.2 144.5 Q210.6 144.8 210.2 145 Q209.9 145.1 209.3 145.2 Q208.6 145.3 207.1 145.6 L207.1 145.6 Q205.9 144.8 205.4 144.4 Q205 143.9 204.6 143.8 Q204.3 143.7 203.7 143.1 L203.7 143.1 Q202.9 142.2 202.5 141.9 Q202.2 141.6 202.2 141.2 Q202.2 140.7 202 140.5 Q201.9 140.4 201.6 140.1 L201.6 140.1 L201.9 139.9 L201.5 139.2 L201.9 138.9 L209.4 135.2 L209.7 135.3 L212.1 134.1 Q212.7 129.9 212.7 129.3 Q212.8 128.6 212.8 127.5 L212.8 127.5 L213.4 127.7 Q213.6 127.5 213.6 127.4 Q213.7 127.2 213.7 127.1 Q213.7 127 213.7 126.6 L213.7 126.6 L214 126.6 L213.9 125.9 Q217.1 128.4 217.1 128.4 Q217.1 128.4 220.6 130.4 L220.6 130.4 Q223.4 129.4 226.2 128.7 L226.2 128.7 L225.9 128.5 L228.1 129.1 Q228.1 129.2 228.1 129.4 Q228.2 129.5 228.3 129.7 Q228.4 129.8 228.6 130.1 L228.6 130.1 Q228.5 130.5 228.4 130.6 Q228.2 130.8 228.2 131 Q228.3 131.2 228.3 131.5 L228.3 131.5 L229 131.5 L228.8 132 L229 132.1 Q228.8 132.5 228.7 132.7 Q228.6 132.9 228.5 133.2 Q228.3 133.6 227.8 133.9 L227.8 133.9 L228.2 134.3 L228.1 134.5 L228.4 134.8 L228.1 135.1 Q227.8 135.6 228.4 136.1 L228.4 136.1 Q225.3 137.4 222.3 138.7 L222.3 138.7 L221.9 140.8 L226.3 139.2 L226.7 139 L228.2 139.6 L227.7 139.9 L228.3 140.2 L228 140.6 L228.1 140.9 L227.8 141.2 Q228.1 141.3 228.2 141.4 Q228.3 141.5 228.2 141.7 Q228.2 141.9 228.3 142.1 L228.3 142.1 L227.7 142.5 Q227.5 143.1 227.4 143.3 Q227.3 143.6 227.4 144 Q227.6 144.5 227.5 145 Q227.4 145.4 227.2 145.6 Q227 145.9 226.7 146.3 L226.7 146.3 L224.5 147.4 L224.4 147.6 L223.7 148.1 Q224 148.1 224.2 148.1 Q224.4 148.1 224.6 147.9 Q224.9 147.7 225.3 147.4 L225.3 147.4 L225.3 147.6 Q223.2 148.6 221.4 149.8 L221.4 149.8 Q221.1 150.8 220.8 152 L220.8 152 Q226.2 149.8 226.5 149.8 Q226.7 149.9 226.9 149.9 L226.9 149.9 L226.5 150.4 L225.8 150.8 L228.5 150.1 L227.8 150.6 L229.8 150.1 L228.4 150.9 L228.4 151.2 L230 150.4 L230.1 150.6 L229.8 151.1 L230.4 150.7 L229.8 151.5 L228.4 152.4 L228.3 152.8 L226.5 154 L226.1 154.6 L227.4 153.8 L226 155.5 L226 155.8 Q233.5 152.7 235.3 152.1 Q237 151.6 238.5 151.1 Q239.9 150.5 240.1 150.4 Q240.3 150.2 240.5 150.1 L240.5 150.1 L238.4 150.6 L239.6 150.2 Q238.6 150.2 238.3 150.3 Q238 150.4 237.3 150.2 Q236.7 150.1 235.9 149.3 Q235.1 148.4 234.8 148.2 Q234.5 148.1 234.1 147.7 L234.1 147.7 Q233.6 146.6 233.3 146 Q233 145.5 233 145.4 Q232.9 145.2 232.8 144.7 L232.8 144.7 L233.9 145 L233.6 144.4 L233.8 144.3 L233.4 143.6 Q233.8 143.6 234.3 143.5 Q234.9 143.5 236.8 142.7 Q238.6 142 239.4 141.8 Q240.1 141.6 240.9 141.3 L240.9 141.3 L240.9 140.8 Q240.1 140.9 239.7 141 Q239.3 141 239.1 141.2 Q238.8 141.3 238.5 141.5 L238.5 141.5 L236.9 140.9 L235.2 139.3 L234.9 139.3 L234.5 138.6 L233.8 138.7 Q233.2 137.7 233 136.4 L233 136.4 L232.8 136.3 Q232.7 136.1 232.6 136 Q232.6 135.9 232.6 135.6 Q232.7 135.4 232.4 135.3 Q232.2 135.2 232.2 134.8 Q232.1 134.5 231.9 134.3 Q231.8 134 231.3 133.3 L231.3 133.3 Q231.6 133.2 231.9 133 Q232.1 132.8 241.9 129.4 L241.9 129.4 Q242.9 124.7 242.4 124.3 Q242 123.8 241.8 123.4 Q241.6 123 241.6 122.6 Q241.6 122.2 241.7 122.1 Q241.8 122.1 241.8 122 L241.8 122 L242.6 122.2 L242.6 121.4 L243 121.5 L243 121.2 Q243.1 121.2 243.3 121.2 Q243.5 121.2 243.7 121.2 Q243.8 121.3 244.2 121.4 L244.2 121.4 L243.8 120.6 L244.6 120.6 L244.4 120.1 L245 120.2 L244.9 119.8 M257.9 134.1 Q257 134.3 256.8 134.3 Q256.5 134.3 256.1 134.3 Q255.8 134.4 255.2 134.6 L255.2 134.6 Q256.2 134.5 256.7 134.5 Q257.2 134.5 257.3 134.4 Q257.5 134.3 257.9 134.1 L257.9 134.1 M259.2 146 Q255.1 146.9 255 146.9 Q255 146.9 254.8 147.1 L254.8 147.1 L259.2 146 M225.2 156.2 L223.9 157.4 L225.3 156.8 L225.3 156.2 L225.2 156.2 M225.3 156.8 L225.2 157 L221.7 159.9 Q221.7 160 221.7 160.1 Q221.6 160.1 221.5 160.2 Q221.3 160.4 220.9 160.8 L220.9 160.8 L221.1 160.9 L221.5 160.7 Q221.2 161.4 220.9 161.6 Q220.7 161.9 220.7 162.3 Q220.7 162.8 220.6 163.1 Q220.5 163.5 220.4 164.4 L220.4 164.4 L220.6 164.3 Q220.4 164.7 220.3 165.1 Q220.2 165.4 219.9 166.7 Q219.6 168 219.6 168.7 Q219.6 169.4 219.5 169.9 Q219.4 170.3 219.3 171.6 L219.3 171.6 Q221.2 170.7 221.7 170.4 Q222.3 170.1 222.7 170.1 Q223.1 170.1 223.4 169.9 Q223.7 169.6 224.6 169.3 Q225.5 169.1 226.6 168.5 Q227.7 167.8 230.8 166.7 Q233.9 165.7 241.5 162.4 L241.5 162.4 L241.5 162 L241.3 162.2 Q241.2 161.7 240.8 161.2 L240.8 161.2 Q240.4 161.3 239.9 161.4 Q239.3 161.5 237.4 162.4 Q235.5 163.2 233.9 163.7 Q232.2 164.2 228.8 161.9 L228.8 161.9 L228.6 161.1 L226.9 160.1 Q226.6 159.6 226.5 159.3 Q226.3 159 226.2 158.2 Q226.1 157.5 225.9 157.3 Q225.7 157.1 225.4 156.9 L225.4 156.9 L225.3 156.8 M236.5 165.3 Q231.6 166.9 231.6 166.9 Q231.6 166.9 227 169.2 L227 169.2 L229.6 168.3 L229.3 168.5 L232 167.6 L232 167.4 Q232.1 167.3 232.2 167.1 Q232.3 167 236.8 165.4 L236.8 165.4 L236.5 165.3 M230.6 177.4 Q229.9 178 229 178.3 L229 178.3 Q229 178.4 228.8 178.6 L228.8 178.6 L228.6 178.4 L230.6 177.4 M252.2 185 L251.6 185.3 L251.3 185.9 L250.8 185.9 L250.7 186.4 Q251 186.2 251.1 186.2 Q251.3 186.1 251.4 186.2 Q251.5 186.2 251.8 186.4 L251.8 186.4 Q251.6 186.7 251.6 187 Q251.6 187.4 251.1 187.9 Q250.6 188.4 250.7 188.9 Q250.7 189.3 250.7 189.9 L250.7 189.9 Q251.5 188.1 251.8 187.4 Q252.1 186.7 252.1 186.2 Q252.1 185.8 252.2 185 L252.2 185 M251 186.7 L250.1 187.5 L250.4 187.5 Q250.1 188 250 188.3 L250 188.3 L250.4 188.9 Q250.4 188.7 250.6 188.1 Q250.7 187.5 251.1 186.6 L251.1 186.6 L251 186.7 M270.6 189.1 Q272.5 189.1 273.3 189.1 Q274.1 189 274.9 189.3 Q275.8 189.6 276.4 190.1 Q276.9 190.6 278.3 191.6 L278.3 191.6 Q278.8 192.7 279.1 193 Q279.5 193.4 279.8 194.6 Q280 195.9 280.7 200.7 Q281.3 205.4 281.1 206.1 Q280.9 206.8 280.4 208 L280.4 208 Q280 208.2 279.8 208.3 Q279.6 208.4 274.4 208.3 L274.4 208.3 L274.8 208.2 L273.1 208.3 Q273.8 208.1 274.2 207.9 Q274.5 207.7 274.7 207.6 Q274.9 207.5 275 207.3 L275 207.3 Q274.8 207.5 273.7 207.6 Q272.6 207.7 270.7 207.1 Q268.9 206.5 266.3 206 Q263.7 205.4 262.9 205.2 Q262.1 204.9 261.4 204.3 L261.4 204.3 Q260 202.9 259.5 202.4 Q259 201.9 258.7 201.4 Q258.3 200.8 257.9 200 L257.9 200 L257.4 199.8 Q255 195.7 254.7 194.5 Q254.4 193.3 254.6 193 Q254.8 192.7 254.7 192.5 Q254.6 192.3 254.8 192 L254.8 192 L255.1 192 Q254.9 191.6 254.6 191.3 Q254.3 191 253.8 190.3 L253.8 190.3 Q254.6 190.3 255 190.3 Q255.3 190.4 255.8 190.5 Q256.4 190.6 256.8 190.7 Q257.2 190.7 258.2 190.8 L258.2 190.8 L258.3 190.5 L257.5 190 Q258.8 189.9 259.4 189.7 Q260 189.6 260.8 189.7 Q261.6 189.9 263.4 189.6 Q265.2 189.2 270.6 189.1 L270.6 189.1 M238.8 197.2 L238.6 197.4 L233.1 200.4 L232.3 199.8 L236.4 198.1 L236.7 197.7 L236.7 198.1 L237 197.5 L237.8 197.6 L237.8 197.3 Q238.1 197.3 238.3 197.2 Q238.5 197.2 238.5 197.1 Q238.5 197.1 238.8 197.2 L238.8 197.2 M208.9 198.9 Q209.3 199.6 209.7 199.9 Q210.1 200.2 210.5 201.6 Q210.9 203.1 211.2 204.6 Q211.5 206.1 211.5 206.7 Q211.4 207.3 211.6 207.7 Q211.9 208.2 211.5 208.7 Q211.1 209.2 211 209.4 Q210.9 209.6 210.9 209.8 L210.9 209.8 L210.5 210 Q210.5 210.3 210.5 210.4 Q210.5 210.6 210 211.4 Q209.4 212.2 209.6 212.7 Q209.8 213.1 209.8 213.5 Q209.8 213.8 209.9 214.6 L209.9 214.6 L210.1 214.5 Q210.1 214.9 209.6 217 Q209.1 219.1 208.5 219.6 Q207.9 220.2 207.1 221.3 L207.1 221.3 Q206.3 221.5 206 221.7 Q205.6 221.8 205.2 221.7 Q204.7 221.7 204.2 221.4 Q203.7 221.1 203.1 221.1 Q202.4 221.1 201.6 220.3 Q200.7 219.5 200.1 219.1 Q199.6 218.7 198.6 218 L198.6 218 Q198.2 216.8 198 216.4 Q197.8 215.9 197.7 215.4 Q197.6 215 197.5 214.8 Q197.4 214.6 197.2 214.2 L197.2 214.2 L198.2 214.4 L198.3 214.1 L197.7 213.6 L198.3 213.6 L197.5 212.9 L198.3 213 Q198.5 211.3 198.5 210.6 Q198.4 209.8 199.4 209 Q200.5 208.2 201.9 206.7 Q203.2 205.1 203.2 204.9 Q203.2 204.6 203.2 204.4 L203.2 204.4 L203.3 204.6 L204.1 203.6 L206.7 201.5 L207.8 200.2 L208.1 200.4 Q208.5 199.9 208.6 199.8 Q208.8 199.7 208.8 199.5 Q208.8 199.2 208.9 198.9 L208.9 198.9 M363.7 120.9 Q363.9 121 365.2 121.2 Q366.5 121.4 367.2 121.4 Q367.9 121.4 368.4 121.7 Q368.8 122 369.5 122 Q370.1 122 371 122.2 Q371.9 122.4 373.7 123.3 Q375.5 124.1 376.1 124.7 Q376.6 125.2 377.6 125.8 L377.6 125.8 Q378.1 126.7 378.4 127.1 Q378.6 127.5 378.6 128.2 Q378.6 129 378.8 129.4 Q379 129.8 378.8 130.4 Q378.6 130.9 377.7 132 Q376.8 133.1 374.9 137.4 L374.9 137.4 L374.8 137 L375.2 136.3 Q374.2 136.8 373.7 136.8 L373.7 136.8 L372.6 138.2 Q372.5 138.3 372.4 138.2 Q372.3 138.2 372.1 138.3 Q371.9 138.5 371.5 138.9 L371.5 138.9 L370.4 140 Q369.9 140.2 369.6 140.4 Q369.4 140.5 369 140.9 Q368.6 141.3 367.8 141.7 Q367 142.1 366.6 142.4 Q366.3 142.7 366 142.6 Q365.6 142.5 365.3 142.8 Q364.9 143.1 364.4 143.2 Q363.9 143.3 362.9 143.9 L362.9 143.9 L364.9 142.5 L364.9 142.3 Q364.2 143 363.3 143.1 L363.3 143.1 L363.2 142.9 L361.1 144.1 Q361.2 143.9 361.4 143.6 L361.4 143.6 L360.9 144 L361.4 143.1 L361 143.1 L359.7 143.9 Q359.5 144.3 359.3 144.5 L359.3 144.5 L359.5 143.7 Q359.2 143.7 359 143.7 Q358.8 143.7 358.5 144 Q358.1 144.4 357.7 144.4 Q357.2 144.4 357 144.6 Q356.9 144.7 356.5 145 L356.5 145 L356 144.8 L355.1 145.4 L355.3 145.2 Q354.9 145.2 354.7 145.2 Q354.5 145.3 353.4 145.9 Q352.3 146.4 351.7 146.9 Q351.1 147.4 350.1 148.2 L350.1 148.2 Q359.2 145.1 363.8 144 Q368.5 142.9 370 142.3 Q371.5 141.6 372.4 141.4 Q373.3 141.2 374.4 140.8 Q375.5 140.4 376.5 140.1 Q377.5 139.8 379 140.2 Q380.6 140.7 382.9 141.9 Q385.3 143.1 387.4 144.8 Q389.5 146.6 390.2 146.6 Q390.8 146.6 391.3 146.9 Q391.7 147.3 392.6 147.8 L392.6 147.8 L392.5 148.1 L393.1 148.6 L393.9 149.1 L394.9 150.2 L396.4 151.5 Q396.8 152.1 397 152.4 Q397.2 152.7 397.2 152.9 Q397.1 153.1 397 153.7 L397 153.7 Q396.5 154.2 396.2 154.4 Q395.9 154.6 394.6 155.1 Q393.3 155.5 391.9 155.2 Q390.6 155 389.8 155.2 Q389.1 155.4 388.5 155.8 Q387.9 156.2 387 157 L387 157 Q386.5 156.9 386.3 156.8 Q386.1 156.7 385.7 156.7 Q385.3 156.8 384.2 156.9 L384.2 156.9 L383.8 157.6 L383.5 157.5 L383.3 157.7 L383.1 157.6 L383 157.9 Q381.9 158.8 381.5 159 Q381 159.3 380 159.7 Q379.1 160 378.3 160.5 L378.3 160.5 L378.5 160.2 L378 160.2 L378.1 159.8 L377.8 159.7 Q376.9 160.2 376.5 160.5 Q376.1 160.8 375.9 160.8 Q375.7 160.8 375.5 160.8 L375.5 160.8 L376.1 160.4 L375.2 160.2 L376.1 159.7 Q375.7 159.8 375.6 159.8 Q375.4 159.8 375.1 159.7 Q374.8 159.7 374.2 159.9 Q373.7 160.1 373.3 160.1 Q373 160 372.6 160.1 Q372.2 160.1 371.7 160.1 Q371.2 160.1 370.7 160.3 Q370.1 160.5 369.4 160.5 Q368.7 160.5 367.7 160.7 Q366.6 160.8 366 161.3 Q365.4 161.7 364.7 161.9 Q364.1 162.1 363.2 162.6 L363.2 162.6 Q366.5 164.2 367.4 164.6 Q368.3 165.1 368.7 165.2 Q369.2 165.3 370.1 165.8 L370.1 165.8 L370.3 166.1 Q371 166.3 371.4 166.5 Q371.7 166.6 372 167 Q372.4 167.5 373.4 168.4 L373.4 168.4 Q374.1 169.7 374.6 170.2 Q375.2 170.7 375.1 170.9 Q375 171.2 375 171.5 L375 171.5 Q374 172 373.5 172.2 Q373 172.4 372.6 173 Q372.2 173.5 371.5 173.4 Q370.8 173.2 370.4 173.6 Q370.1 173.9 369.5 174.6 L369.5 174.6 L368.9 175.7 Q368.8 175.7 368.8 175.7 Q368.7 175.7 368.5 175.8 Q368.4 176 367.7 175.8 Q367.1 175.7 366.7 175.9 Q366.3 176.1 365.7 176.4 L365.7 176.4 L365.4 176.9 L363.5 178.3 L363 179.2 Q362.9 179.3 362.7 179.4 Q362.6 179.5 362.3 179.7 Q361.9 180 361.3 180.1 Q360.7 180.3 359.9 181.1 Q359.2 181.9 358 182.3 Q356.9 182.7 356.8 182.7 Q356.6 182.7 356.4 182.6 L356.4 182.6 L355.1 183.1 L355.7 183.7 L370.6 180.3 L369.2 180.7 L369.4 180.8 Q378.5 179 378.6 178.9 Q378.7 178.8 379 178.6 L379 178.6 L379.1 179 L379.4 178.8 Q379.8 179 380.1 179.1 Q380.4 179.2 382.3 178.8 Q384.1 178.4 384.8 178.6 Q385.5 178.9 385.8 179.1 Q386.1 179.3 386.5 179.9 L386.5 179.9 Q389.6 187.3 389.9 189.7 Q390.2 192.2 390.1 192.7 Q390 193.1 389.9 193.7 L389.9 193.7 Q389.5 193.8 389.4 193.8 Q389.2 193.7 388.7 193.8 Q388.3 193.9 387.8 194 Q387.3 194.1 386.9 194.5 Q386.4 194.9 385.3 194.9 Q384.1 194.9 382.9 195.2 Q381.6 195.4 379.6 195.2 Q377.7 194.9 372.8 195.4 Q367.9 195.9 364.8 196.3 Q361.7 196.7 360.3 197.1 Q358.9 197.4 357.4 198 L357.4 198 Q357.3 198.8 357.3 199.4 Q357.2 199.9 357.2 202.3 Q357.1 204.6 356.6 207.2 Q356.2 209.7 356 212.5 Q355.8 215.2 355.5 217.2 Q355.1 219.1 354.7 220.2 Q354.3 221.3 354 221.7 Q353.6 222 353 222.7 L353 222.7 L352.2 223.4 L352 223 L351.2 222.7 L351.1 222 Q350.9 222 350.8 222 Q350.7 222 350.3 221.8 Q350 221.7 349.3 221.8 Q348.7 221.9 348.2 221.6 Q347.8 221.3 347.1 221 L347.1 221 L346.9 220.6 Q345.8 220.6 345.5 220.6 Q345.1 220.6 344.7 220.2 Q344.3 219.8 343.9 219.9 Q343.4 219.9 342.3 219.8 L342.3 219.8 L342.3 219.1 Q341.6 218.4 341.3 218.2 Q341.1 217.9 340.9 217.8 Q340.7 217.8 340.2 217.5 L340.2 217.5 L339.9 217.2 Q338.8 216.3 338.4 215.9 Q338 215.6 337.7 215.4 Q337.3 215.3 336.9 215.1 L336.9 215.1 L336.6 214.8 Q335.1 214.2 334.3 213.8 Q333.4 213.5 331.9 213.2 Q330.4 212.9 330.2 212.8 L330.2 212.8 L330.4 212.7 Q330.5 212.5 330.6 212.2 L330.6 212.2 L331 212.1 L330.3 211.9 Q335.4 211.1 335.4 211.1 Q335.4 211.1 341.9 209 L341.9 209 Q342.4 207.7 342.8 207.1 Q343.2 206.5 343.6 204.4 Q344.1 202.2 344.2 201.2 Q344.3 200.3 344.5 198.5 L344.5 198.5 Q339.4 199.7 334.7 201.2 Q330 202.7 327.9 203 Q325.8 203.3 325.1 203.5 Q324.4 203.7 323.9 203.8 Q323.4 203.9 322.3 203.6 Q321.1 203.3 318.5 200.5 L318.5 200.5 L318 200.3 Q317.9 200.3 317.8 200.2 Q317.8 200 314.9 197.4 L314.9 197.4 L315.5 197.1 Q315.1 196.8 314.9 196.4 L314.9 196.4 L315.9 196.4 L316 195.8 L315.1 195.4 Q320.8 192 331.6 189.5 Q342.4 186.9 342.6 186.8 Q342.7 186.7 343 186.6 L343 186.6 Q341.9 186.2 341.2 185.7 L341.2 185.7 L341.6 185.7 L341.6 185 L343 184.9 L342.7 184.6 L343.4 184.5 L343 183.4 Q343.4 183.4 343.8 183.4 Q344.1 183.5 344.6 183.2 Q345 182.9 345.9 182.3 L345.9 182.3 Q346.2 181.6 346.3 181.5 Q346.5 181.4 346.5 180.9 Q346.5 180.5 349.2 174.1 L349.2 174.1 Q347.8 175.2 347.2 175.7 Q346.5 176.2 346 176.4 Q345.5 176.5 344.6 177 L344.6 177 L344.2 177.5 Q343.9 177.6 343.3 178.1 Q342.7 178.6 341.7 179.2 Q340.7 179.7 339.5 180.4 Q338.4 181.1 337.7 181.6 Q337 182.2 335.6 183.2 L335.6 183.2 Q335.4 183.2 335.2 183.1 Q335 183 334.4 183.1 Q333.8 183.1 333.1 183 Q332.5 182.9 332.2 182.7 Q331.9 182.6 331.5 182.1 L331.5 182.1 Q330.8 181.3 330.5 181 Q330.2 180.7 330 180.2 Q329.8 179.7 329.3 179.1 Q328.8 178.5 328.4 177.7 Q328 176.9 327.4 176.4 Q326.7 175.9 326.7 175.1 Q326.6 174.4 326.2 172.7 L326.2 172.7 L326.5 172.7 L326.2 172 L326.5 172 L326.4 171.8 L326.9 171.5 L326.9 171.2 Q327.4 170.9 327.7 170.9 Q328 170.8 329.3 170.2 Q330.6 169.6 336.2 167.3 Q341.8 165 346.3 163.6 Q350.9 162.3 352.8 161.3 Q354.7 160.2 356 160.7 Q357.3 161.1 358.1 161.1 Q358.8 161.1 359.1 160.7 Q359.4 160.4 360.4 159.6 L360.4 159.6 L360.2 159.3 L364.9 153.9 Q358.8 156.1 353.5 157.4 Q348.1 158.6 344.4 160.4 Q340.7 162.1 339.7 162.4 Q338.8 162.7 338.5 162.9 Q338.2 163.1 337.4 163.7 L337.4 163.7 Q336.4 163 336 162.8 Q335.6 162.6 334.8 162.3 Q334 162.1 328.5 157.4 L328.5 157.4 L328.2 155.9 L330.3 156.5 Q329.7 156 329.7 155.1 L329.7 155.1 Q330.4 155.3 331.2 155.3 L331.2 155.3 L330.1 154.7 Q330.5 154.7 331.1 154.7 Q331.7 154.7 336.5 153 L336.5 153 Q335.9 152.8 333.8 151.9 Q331.7 151.1 328.2 147.7 L328.2 147.7 Q325.7 144.3 324.7 140.4 Q323.6 136.4 323.9 135.6 Q324.1 134.8 324 134.7 Q324 134.5 324 134.1 L324 134.1 Q329 136.8 331.6 137.9 Q334.2 139 338.4 142.1 L338.4 142.1 Q338.8 142.4 339.4 143 Q340.1 143.6 340 144.4 Q340 145.2 340.9 145.9 Q341.8 146.7 342.1 147.8 Q342.5 149 342.1 149.4 Q341.8 149.9 341.3 151.2 L341.3 151.2 L349 148.6 L350.7 146.9 L350.1 147.4 Q350.1 147.1 350.1 147.1 Q350.2 147 350.1 147 Q350.1 147 350.1 146.9 L350.1 146.9 L350 147.1 Q349.6 147.4 349.4 147.5 Q349.2 147.7 348.1 147.5 Q347.1 147.4 346.1 146.9 Q345 146.4 344.5 146 Q344 145.5 343.3 144.8 L343.3 144.8 Q342.4 143.5 342 142.8 Q341.7 142.2 341.5 141.1 Q341.3 140 341.1 139.3 Q340.9 138.5 340.4 136.8 L340.4 136.8 L340.7 137 Q340.7 136.7 340.3 134.1 Q340 131.6 339.7 130.2 L339.7 130.2 L340.2 130 Q340 129.5 339.9 129.3 Q339.7 129.1 339.7 128.9 Q339.7 128.6 339.9 128.2 L339.9 128.2 Q343 130.1 344.4 130.5 Q345.8 130.9 349.5 133.8 L349.5 133.8 Q350.7 134.9 351.2 135.4 Q351.7 135.8 351.9 136.3 Q352.2 136.8 352.6 137.2 Q353 137.6 353 137.9 Q353 138.2 353.2 138.4 Q353.4 138.6 353.8 139.2 L353.8 139.2 L353.6 139.8 L354.1 140.1 L354.3 140.6 Q356.9 135.8 358.1 133.3 Q359.3 130.9 360.1 128.9 Q361 126.8 360.6 126 Q360.2 125.3 360.2 125.1 Q360.2 124.8 360.2 124.3 L360.2 124.3 L360.7 124.4 L361 124.3 L361 123.9 L361.8 122.5 L362.5 122.3 L363.7 120.9 M316.6 149.2 L317.4 150 L316.9 149.9 L317.1 150.4 L316.7 150.4 L317 150.8 L316.4 150.6 L316.6 151.2 L315.9 150.8 Q316.5 152.2 316.9 153.1 Q317.3 153.9 316.4 156.8 Q315.6 159.7 314.8 162.5 Q314.1 165.3 313.2 167 Q312.4 168.6 311.2 169.7 Q310.1 170.8 309.7 171.8 Q309.4 172.7 309.5 173.4 Q309.6 174.2 310 174.5 Q310.4 174.9 310.6 175.7 Q310.8 176.5 311 176.8 Q311.2 177 311.6 177.6 L311.6 177.6 L312.4 177.5 L312.7 178.3 L313.1 178.4 Q313.4 178.9 313.9 179.5 L313.9 179.5 Q317.1 182.3 318 182.7 Q318.9 183 319.4 183 Q320 182.9 320.2 182.7 Q320.5 182.4 321.1 182 L321.1 182 Q321.3 181.4 321.4 181.1 Q321.5 180.8 321.9 180.4 Q322.3 179.9 322.3 179.8 Q322.4 179.7 322.4 179.6 L322.4 179.6 L322.8 180.3 Q323.4 179.5 323.6 179.2 Q323.8 178.9 323.9 178.4 Q324 177.8 324.6 177 Q325.1 176.1 325.4 175.3 Q325.7 174.4 325.7 173.7 Q325.7 173 326 172 Q326.4 170.9 326.8 169.4 Q327.2 168 327.4 166.7 Q327.5 165.4 327.6 165.3 Q327.7 165.1 327.8 164.7 L327.8 164.7 L327.5 164.7 L327.2 165.1 Q327.2 164.3 327.2 163.9 Q327.2 163.5 327.5 162.1 Q327.8 160.7 327.8 159.4 Q327.9 158.1 327.6 157.3 Q327.3 156.5 327 155.5 L327 155.5 L326.5 155.3 L325.6 153.7 Q325.1 153.6 322.8 152.3 Q320.4 151.1 316.6 149.2 L316.6 149.2 M359.1 160.9 L359.3 161.3 L360.7 160.7 L360.1 160.6 L360.4 160.2 L359.1 160.9 M363.5 160.2 Q362.7 160.5 362 160.9 L362 160.9 L361.6 161.9 L363.5 160.2 M350.3 171.5 Q349.7 172.1 349.5 172.3 Q349.3 172.6 349.3 172.9 Q349.3 173.2 349.2 173.4 Q349 173.6 348.8 174.1 L348.8 174.1 L349.2 174.1 L350.3 171.6 L350.3 171.5 Z" style="" fill="#000000" transform="matrix(1,0,0,1,0,0)"/><path d="M264 237.8 Q264.8 238 265.1 238.1 Q265.4 238.2 266.4 238.3 Q267.4 238.3 270.4 239.9 Q273.4 241.6 274.5 241.6 Q275.7 241.7 276.3 242.4 Q276.8 243.2 278.4 243.7 Q279.9 244.2 280.9 245 Q281.8 245.8 281.9 246 Q282.1 246.3 282.4 246.4 L282.4 246.4 Q282 247 281.9 247.2 Q281.8 247.4 281.6 247.6 Q281.4 247.8 281.1 248.1 L281.1 248.1 L281.2 249.3 L280 250.2 L280.2 250.5 Q279.6 251.4 279.3 251.8 Q279 252.1 279 252.4 Q278.9 252.6 278.9 252.9 L278.9 252.9 L278.4 253.1 L278.2 253.5 L278.7 253.3 L278.3 254.1 L277.4 254.9 Q276.5 256.7 276 257.5 Q275.6 258.2 275.6 258.3 Q275.6 258.5 275.6 258.6 L275.6 258.6 L276.3 258.3 L276 258.6 L275.6 258.8 Q275.3 259.5 275 260 L275 260 L275.2 258.7 L273.8 260.2 L274.2 260.4 L273.6 261 L274 259.5 L273.1 261.5 L272.8 261.7 Q272.7 262.3 272.6 262.5 Q272.6 262.7 272.3 262.9 Q272.1 263.1 271.9 263.6 Q271.7 264.1 271.4 265.5 Q271.1 267 270.7 268.2 Q270.4 269.5 268.9 273.1 L268.9 273.1 Q269.2 273.1 269.5 273 Q269.7 273 270.4 272.4 Q271.1 271.8 271.9 271.2 Q272.8 270.6 274.2 271.1 Q275.6 271.5 277.8 272.7 Q279.9 273.9 285.1 279 L285.1 279 Q285.2 280 285.3 280.4 Q285.5 280.9 285.2 281.9 Q284.9 283 284.2 283.9 Q283.6 284.8 283.1 286.1 Q282.6 287.4 281.3 289.6 Q280 291.8 279.4 292.3 Q278.8 292.8 278.7 293.5 Q278.7 294.1 278.2 294.6 Q277.6 295 277.6 295.4 Q277.5 295.8 277.2 296.1 Q276.8 296.4 276.5 297.3 Q276.1 298.2 275.7 298.8 Q275.2 299.4 275.1 299.7 Q275 300.1 274.6 300.8 L274.6 300.8 L274.2 301.1 L273.7 301.8 L273.4 301.9 L274 300.8 L273.8 300.7 L272.1 303.3 L272.2 303.5 L273.1 302.3 L273.3 302.5 L272.9 302.7 Q272.8 303.2 272.6 303.5 L272.6 303.5 Q279.4 305.7 281.1 305.8 Q282.8 305.8 283.9 306.6 Q285 307.5 285.6 308 Q286.1 308.5 287.2 309.5 L287.2 309.5 Q287.8 310.4 288 310.9 Q288.3 311.4 288.8 313.4 Q289.2 315.4 289.4 320.6 Q289.5 325.9 289.5 326.2 Q289.6 326.5 289.7 326.8 L289.7 326.8 L290.4 327.1 L290.1 327.3 L289.8 327.9 L288.9 328.5 L289.1 328.6 L289.2 329.1 Q288.3 329.2 287.8 329.3 Q287.3 329.4 285.9 328.9 Q284.5 328.4 279.8 326.1 Q275 323.8 274.2 323.2 Q273.4 322.6 273 322.5 Q272.7 322.4 272 322.1 L272 322.1 L272 321.8 Q265.3 317.9 258.9 313.7 L258.9 313.7 L257.6 314.2 L257.5 313.9 Q257.2 313.9 256.9 313.8 Q256.7 313.8 250.6 316.2 L250.6 316.2 L250.7 316 Q248.5 316.4 246.4 316.8 L246.4 316.8 L246.2 317.1 Q246.1 317 246 316.9 Q245.9 316.8 245.8 316.8 Q245.7 316.9 245.4 316.9 L245.4 316.9 L245.9 316.5 L246.1 316.1 Q246.5 316.1 246.7 316 Q246.9 316 247.3 315.7 Q247.6 315.4 248.5 314.6 L248.5 314.6 L248.7 314.2 L249.7 313.4 L250.4 312.5 Q249.8 312.7 249.5 312.9 Q249.2 313 248.9 313.2 Q248.5 313.4 247.7 314.1 L247.7 314.1 Q249.1 312.7 249.6 312.2 Q250.1 311.7 250.4 311.5 Q250.7 311.4 251.1 311.1 L251.1 311.1 Q251.3 310.8 251.4 310.7 Q251.5 310.6 251.5 310.5 Q251.5 310.4 251.5 310.3 L251.5 310.3 L252.1 309.9 L251.9 309.8 L252.9 308.1 L250.6 306.1 L246.5 301 Q246.2 301.2 246.1 301.8 Q246 302.4 245.9 302.9 L245.9 302.9 Q246 303.2 246.2 303.4 L246.2 303.4 Q245.8 304.2 246 304.9 L246 304.9 L246.4 304.1 Q246.2 304.9 246.2 305.3 Q246.2 305.7 246.3 306.4 Q246.4 307 246.1 307.3 Q245.9 307.7 246 307.9 Q246.1 308 246.1 308.2 Q246.1 308.4 246.1 308.6 L246.1 308.6 L245.8 308.8 Q245.9 309.1 246 309.2 Q246.1 309.4 246.1 309.8 Q246 310.2 246.1 311.1 Q246.1 311.9 246 312.1 Q245.9 312.3 245.8 312.5 L245.8 312.5 Q245.8 312.7 245.9 312.8 Q246 312.9 245.9 313.1 Q245.8 313.4 245.8 313.7 Q245.9 314 245.7 314.2 Q245.6 314.4 245.6 314.8 Q245.7 315.2 245.4 316 Q245.1 316.9 245.4 317.3 Q245.7 317.8 245.6 318 Q245.4 318.1 245.4 318.5 L245.4 318.5 L245.2 318.4 L245.1 319 L245.3 318.8 L245.4 319.4 L245.8 319.8 Q245.9 318.6 246.1 317.6 L246.1 317.6 L245.8 325 L245.7 324.9 L245.8 324.6 L245.3 324.1 L245.8 323.9 L246 321.2 L245.8 321.2 Q245.4 322.6 245.4 323.1 Q245.3 323.5 245.1 323.9 Q244.9 324.2 244.5 325.7 Q244.1 327.2 244.1 327.9 Q244.1 328.5 243.8 329.1 Q243.5 329.8 243.7 330.2 Q243.9 330.7 243.9 331.1 Q243.9 331.5 243.9 332.5 L243.9 332.5 L243.5 332.9 Q243.7 333.3 243.8 333.6 Q243.9 333.8 243.9 334 Q243.9 334.1 243.9 334.6 L243.9 334.6 L243.4 334.8 L243.2 335.5 Q242.7 335.5 242.3 335.5 Q242 335.5 241.4 335.2 Q240.8 334.9 240.1 334.5 Q239.3 334.1 238.9 334.1 Q238.5 334 237.8 333.8 L237.8 333.8 Q237.8 333.2 237.9 332.9 Q238 332.6 237.6 332.3 Q237.2 332.1 236.6 331.3 L236.6 331.3 Q235.5 331 234.6 330.3 L234.6 330.3 Q234.6 329.9 234.7 329.5 Q234.7 329.1 234.2 328.1 Q233.6 327.1 233.6 326.9 Q233.6 326.7 233.6 326.3 L233.6 326.3 L233.4 326.2 L232.9 325.4 Q232.8 325.4 232.3 325.1 Q231.9 324.8 231.2 324.2 L231.2 324.2 Q231.4 324 231.6 324.1 L231.6 324.1 L232.1 323.9 L232.6 324.2 Q232.7 324.5 232.4 324.8 L232.4 324.8 L232.9 324.9 Q233 324.7 233.1 324.5 Q233.1 324.2 233.2 322.6 Q233.4 321 234.9 294.1 L234.9 294.1 L234.6 294.1 Q234.5 294.8 234.5 295.1 Q234.5 295.5 234.3 295.6 Q234.2 295.7 234.1 296 Q234.1 296.3 233.7 297.1 L233.7 297.1 Q233.7 297 233.6 296.9 Q233.6 296.9 233.5 295.2 Q233.4 293.5 233.6 293.1 Q233.8 292.7 233.8 292.3 Q233.7 291.9 234 288.9 Q234.3 285.9 234.3 285.7 Q234.3 285.4 234.3 285 L234.3 285 L233.8 286.5 Q234.1 285.4 234.1 284.9 Q234.1 284.5 234.2 284.3 Q234.3 284.2 234.3 284.1 L234.3 284.1 Q234.2 283.8 234.3 283.2 Q234.4 282.6 234.6 279.7 Q234.7 276.9 235.1 268.6 L235.1 268.6 L235.4 268.7 L235.8 268.5 L236.8 268.8 L237.2 268.6 L236.1 267.1 Q237.3 267.1 238.4 267.4 L238.4 267.4 L237.5 266.6 L238.2 266.5 L238 266.3 Q238.6 266 239.1 265.9 Q239.5 265.7 240.4 266.3 Q241.4 266.9 243.1 267.1 Q244.7 267.4 245.6 267.8 Q246.5 268.2 247.7 269 L247.7 269 Q248.3 269.8 249.1 270.9 Q249.8 272 249.3 273 Q248.8 273.9 248.9 275.9 Q249.1 277.9 248.6 280.1 Q248.1 282.4 248 283.3 Q248 284.2 247.9 285.9 L247.9 285.9 L247.5 286.1 L247.5 286.8 Q247.7 286.8 247.8 286.6 Q247.9 286.5 248.4 286.6 Q248.9 286.6 251.9 284.6 Q254.9 282.5 259.9 279 L259.9 279 Q259.7 278.7 258 276.3 Q256.4 273.9 254.5 271.6 Q252.6 269.4 252.4 269 Q252.3 268.7 252.1 268.4 L252.1 268.4 L252.3 268.1 Q254.6 267.3 257 266.2 L257 266.2 Q257.3 265.4 257.3 265.1 Q257.4 264.8 257.6 264.6 Q257.9 264.3 257.8 264 Q257.7 263.6 257.9 262.9 Q258.1 262.1 259.4 254.6 L259.4 254.6 L259.1 254.4 Q258.1 255 257.5 255.3 Q256.9 255.6 256.1 256.4 Q255.2 257.3 253.9 258.1 Q252.6 258.8 251.2 259.7 Q249.9 260.6 248.5 261.9 Q247.2 263.2 245.8 264.1 Q244.4 265 243.5 265.4 Q242.6 265.8 241.6 265.6 Q240.6 265.5 238.9 264.7 Q237.2 263.9 232.1 260.9 L232.1 260.9 Q231.9 262.1 231.8 262.5 Q231.6 262.9 231.6 263.3 Q231.5 263.6 231.3 264.2 Q231.2 264.7 231.2 264.8 Q231.2 264.9 231.3 265 L231.3 265 L230.8 265.6 L230.3 265.4 L230 266 L230.5 265.8 Q230.5 265.8 230.5 265.8 Q230.5 265.8 230.4 266 Q230.4 266.2 230.3 266.5 L230.3 266.5 L230.5 266.7 L230.3 267.3 L230.6 267.2 L230.8 265.9 L231.1 266.2 Q230.8 267.5 230.7 268 Q230.6 268.5 230.7 268.8 Q230.7 269 230.4 269.3 Q230 269.5 230 269.8 Q230 270.2 229.8 271 L229.8 271 L229.6 271.1 Q230 266.7 230 266.6 Q229.9 266.5 229.8 266.4 L229.8 266.4 Q229.7 267 229.6 267.3 Q229.6 267.7 229.2 268.5 Q228.9 269.4 229 269.8 Q229.2 270.2 229 270.6 Q228.9 271.1 228.6 276.6 L228.6 276.6 L228.9 276.6 Q229 276.4 229 276.1 Q229.1 275.8 229 275.7 Q229 275.5 229.1 274.6 Q229.2 273.6 229.3 273.3 L229.3 273.3 L229.6 273.5 Q229.6 273.3 229.5 272.9 Q229.4 272.5 229.6 272.3 Q229.8 272 230.3 271.3 L230.3 271.3 Q230.3 271.6 230.3 271.7 Q230.3 271.8 230.1 272.6 Q230 273.4 229.8 275.5 L229.8 275.5 L229.3 275.6 L229.4 275.9 L229.2 276.1 Q229.1 276.4 229.3 276.6 L229.3 276.6 Q229 276.7 228.8 276.9 L228.8 276.9 L229.2 276.9 L229.1 277.3 L229.6 277.2 Q229.6 277.7 229.6 277.9 Q229.7 278.1 229.6 278.2 Q229.4 278.4 229.2 278.7 L229.2 278.7 L229.2 277.9 L229 278.4 L228.8 278.1 Q228.9 279 228.9 280.3 Q228.9 281.6 228.8 283.6 Q228.6 285.6 228.6 286.2 L228.6 286.2 Q228.3 286.1 228.1 285.7 L228.1 285.7 L228.3 285.6 L228.5 285.1 L228.2 285.1 Q228.1 282.8 228.2 280.4 L228.2 280.4 Q227.5 281.5 227.4 282.7 L227.4 282.7 L227.7 282.5 L227.5 283.6 L227.4 283.4 Q227.3 284.8 227.3 286.6 Q227.3 288.4 227.3 290 L227.3 290 Q227.6 289.6 227.7 289.2 L227.7 289.2 L228 289.4 L227.1 290.4 Q227.1 290.8 227.2 290.9 Q227.3 291.1 227.1 291.4 Q227 291.7 226.9 292.5 L226.9 292.5 L227.5 292.6 L227.5 292.7 L227.1 292.7 Q227.3 293.1 227.2 293.2 Q227.1 293.4 227.2 293.6 Q227.3 293.9 227.2 294.3 Q227.1 294.8 227.1 295.4 Q227.1 296 227.1 296.5 Q227 297 226.9 298.1 L226.9 298.1 Q226.9 298 226.9 297.9 Q226.8 297.8 226.8 296.6 Q226.8 295.4 226.9 293.5 L226.9 293.5 L226.5 294.1 L226.7 294.2 Q226.6 295 226.6 295.4 Q226.6 295.7 226.3 296.5 Q226 297.2 226.2 298.2 Q226.3 299.2 226.1 299.4 Q225.9 299.6 226 299.8 Q226.1 300 226 300.3 Q225.9 300.5 225.8 301.8 Q225.8 303 225.8 303.3 Q225.8 303.5 225.7 303.8 Q225.7 304 225.9 304.5 Q226.1 304.9 225.9 306 Q225.7 307 225.7 307.5 Q225.7 307.9 225.5 308.3 Q225.3 308.6 225.4 309.3 Q225.4 310 225.5 310.2 Q225.5 310.3 225.8 310.4 L225.8 310.4 Q225.7 310.8 225.6 311.4 Q225.5 312 225.4 312.3 L225.4 312.3 L225.8 312.4 L225.8 312.5 L225.3 312.5 Q225.3 312.6 225.3 312.7 Q225.2 312.9 225.3 313 Q225.3 313.1 225.4 313.4 L225.4 313.4 L225.2 313.7 L224.9 315.4 L225.1 315.3 L225.3 315 Q225.2 315.3 225.1 315.4 Q225.1 315.5 225 316.1 Q224.9 316.6 224.7 320.3 L224.7 320.3 L224.6 320.1 L224.6 320.3 L224.3 320.7 Q224.3 321.8 224.3 322.5 Q224.3 323.1 224.1 324.6 Q223.9 326.1 224 326.8 Q224 327.6 223.6 328.1 Q223.1 328.6 223.2 329.6 Q223.2 330.6 223 330.9 Q222.7 331.3 222.7 331.4 Q222.7 331.6 222.7 331.9 L222.7 331.9 Q222 332.1 221.3 331.7 L221.3 331.7 L220.9 330.9 L220 330.1 Q216.3 325.7 214.7 323.8 Q213 321.9 212.6 320.3 Q212.2 318.7 211.5 317.9 Q210.8 317.1 210.5 316.5 Q210.2 316 209.9 315.6 Q209.6 315.2 208.4 313.4 L208.4 313.4 L208.8 313.4 L207.8 312 Q208.6 312.7 209 313.1 Q209.4 313.4 209.8 313.5 Q210.1 313.5 210.3 313.5 Q210.5 313.4 210.6 313.3 L210.6 313.3 L210.5 313 L210.7 312.5 Q211.2 312.5 211.3 312.5 Q211.5 312.5 211.9 312.7 Q212.3 312.9 212.4 312.9 L212.4 312.9 L212.5 312.6 L213 313.1 Q213.4 312.7 213.8 312.4 L213.8 312.4 L213.5 311.7 Q213.9 311.8 214.2 311.8 Q214.5 311.8 214.7 311.8 Q215 311.7 215.3 311.6 L215.3 311.6 L215.4 310.9 L215.8 311.4 Q215.9 310.1 215.9 308.9 L215.9 308.9 L215.6 308.6 Q215.8 308.4 215.8 308.3 Q215.8 308.1 215.8 307.7 Q215.8 307.3 215.8 306.3 L215.8 306.3 L215.3 306.2 L215.2 307 L215.4 307.5 L215.1 307.8 Q215.1 306.6 215.1 306.1 Q215.1 305.5 215 304.1 Q214.8 302.7 214.8 300.8 Q214.7 298.9 215 298.4 Q215.2 297.9 215 297.4 Q214.8 296.9 215 296.6 Q215.2 296.4 215.1 296.1 Q215.1 295.8 215.1 294.9 L215.1 294.9 L214.7 295.6 Q214.7 294.3 214.7 293.9 Q214.6 293.4 214.7 293 Q214.7 292.5 214.8 291.5 L214.8 291.5 Q213.6 292.5 213.2 293 Q212.8 293.4 212.3 293.6 Q211.9 293.8 210.8 294.5 Q209.8 295.3 209.3 295.7 L209.3 295.7 Q208.9 295.6 208.6 295.5 Q208.4 295.5 208.2 295.6 Q207.9 295.7 207.5 295.6 Q207 295.5 206.9 295.7 Q206.8 296 206.4 296.1 L206.4 296.1 Q206.4 297 206.2 299.6 Q205.9 302.3 205.2 304.3 Q204.6 306.4 204 307.6 Q203.3 308.8 203.1 309.5 Q202.9 310.1 202.5 310.4 Q202.2 310.8 202.1 311.1 Q202 311.5 201.6 311.9 Q201.3 312.3 201 312.9 Q200.8 313.4 200.4 313.8 Q200 314.2 199.8 314.6 Q199.7 314.9 199.1 315.8 L199.1 315.8 L198.6 316.1 L197.4 317.7 L196.4 318.4 Q195.1 319.9 193.7 321.2 L193.7 321.2 L190 323.2 L190.9 322.4 Q190.1 322.7 189.5 323 Q189 323.2 187.5 324.2 Q186.1 325.2 185.9 325.2 Q185.8 325.2 185.5 325 L185.5 325 L186.4 324.4 L187.2 323 L186.2 324 Q185.3 324.6 184.6 325.2 L184.6 325.2 Q192.2 312.5 193.4 308 Q194.6 303.5 195.2 298.8 Q195.8 294 196.3 287.6 Q196.8 281.2 197.1 274.4 Q197.4 267.5 197.4 264.6 Q197.4 261.7 197 261 Q196.7 260.3 196.7 260 Q196.7 259.7 196.7 258.9 L196.7 258.9 Q197.2 258.6 197.6 258.3 Q197.9 258.1 198.6 258.4 Q199.2 258.7 199.6 258.5 Q199.9 258.3 200.4 258.3 Q200.8 258.2 203.2 259.6 Q205.5 260.9 206.7 261.6 L206.7 261.6 Q207.4 262.4 207.8 262.7 Q208.2 263.1 208.5 264 Q208.9 265 209.1 269.7 L209.1 269.7 Q211.7 268.1 214.7 267.1 L214.7 267.1 Q214.7 267 214.7 266.9 Q214.7 266.7 215 258.3 L215 258.3 Q214.5 258.7 214 259 Q213.5 259.3 212 260.3 Q210.6 261.3 209.1 260.6 Q207.6 260 205 258.2 Q202.3 256.4 201.8 256.3 Q201.3 256.2 201.1 256 Q200.9 255.9 200.6 255.7 L200.6 255.7 L200.7 255.5 L200.7 255 L198.5 253.5 Q200 252.4 201 251.6 Q202.1 250.9 205.8 248.8 Q209.6 246.7 212.4 245.4 Q215.3 244.1 216.6 243.7 Q217.8 243.3 218.1 243.1 Q218.4 242.8 218.9 242.5 L218.9 242.5 L218.3 241.7 L219.4 242 L219.8 241.8 Q220.2 241.8 220.6 241.8 Q220.9 241.9 222 242.5 Q223 243.2 223.6 243.4 Q224.3 243.6 225.1 244.1 L225.1 244.1 L225.4 244.5 L225.7 244.4 Q226.6 244.9 227.1 245 Q227.7 245.1 228.6 245.8 Q229.4 246.5 230.2 246.9 Q230.9 247.3 231.3 247.7 Q231.6 248.1 231.9 248.1 Q232.2 248.1 232.4 248.3 Q232.6 248.5 232.9 248.8 L232.9 248.8 L233.2 249.4 L233.6 248.8 Q233.8 249.8 233.9 250.2 Q234.1 250.6 234.2 250.8 Q234.4 251 234.6 251.3 Q234.7 251.6 234.5 252.1 Q234.3 252.6 233.8 253.9 L233.8 253.9 Q234.3 253.7 234.7 253.6 Q235.1 253.5 242.1 249.4 Q249.1 245.2 253.9 242.8 Q258.8 240.4 259.8 240 Q260.7 239.6 262.1 239.1 L262.1 239.1 L262.5 238.4 L263.5 238.3 L263.5 238 L264 237.8 M277.9 254.9 Q277.3 256.4 276.9 257 Q276.6 257.7 276.5 257.8 Q276.5 257.9 276.3 258.1 L276.3 258.1 L276.1 258 L277.9 254.9 M230.1 271 Q229.7 271.6 229.7 272.1 L229.7 272.1 L229.3 272.1 L229.6 271.3 L230.1 271 M213.5 275.2 L212.9 275.8 Q209.4 277.9 209.2 278.1 Q209 278.2 208.6 278.6 L208.6 278.6 Q208.5 281.1 208.4 283.6 L208.4 283.6 Q208.8 283.5 209 283.5 Q209.3 283.4 214.7 279.7 L214.7 279.7 Q214.6 278.7 214.6 278.2 Q214.5 277.8 214.6 277 Q214.6 276.2 214.7 274.1 L214.7 274.1 L213.5 275.2 M228.8 286.2 Q228.8 286.3 228.8 286.3 Q228.8 286.3 228.7 287 Q228.6 287.7 228.6 289.5 L228.6 289.5 L228.5 288.7 L228.1 289.2 Q228.4 287.7 228.8 286.2 L228.8 286.2 M228.3 286.4 Q228.1 287 227.9 287.2 Q227.7 287.4 227.7 287.7 Q227.7 288 227.8 288.5 L227.8 288.5 Q228.1 287.4 228.3 286.4 L228.3 286.4 M247.5 289.6 L247.4 292 L247.3 291 Q247 291.6 246.9 292 Q246.8 292.5 246.7 294.9 Q246.6 297.2 246.6 297.4 L246.6 297.4 Q251.6 297.2 251.6 297.2 Q251.6 297.2 258.1 299.1 L258.1 299.1 L262 289.9 Q260.6 290.7 259.7 291.2 Q258.8 291.7 257.2 292.5 Q255.7 293.3 254.7 293.4 Q253.7 293.4 253 293.2 Q252.3 293 251 292.7 L251 292.7 L250.4 292 L247.5 289.6 M215.2 298.6 Q215.2 299.1 215.1 299.3 Q215 299.5 215.1 299.8 Q215.3 300.1 215.2 300.3 Q215.1 300.5 215.1 300.8 Q215.2 301.1 215.2 301.4 Q215.3 301.7 215.4 301.9 L215.4 301.9 Q215.6 300.2 215.5 298.5 L215.5 298.5 L215.2 298.6 M215.4 303.4 L215.2 304.9 L215.6 304.9 Q215.6 304.8 215.6 304.5 Q215.5 304.1 215.4 303.5 L215.4 303.5 L215.4 303.4 M232.8 309.4 L233 309.4 L232.9 309.9 L233.4 310.1 L233.5 309.5 L233.6 309.9 Q233.6 310 233.5 310.2 Q233.4 310.4 233.1 316.6 L233.1 316.6 Q233.2 315.5 233.2 315 Q233.2 314.6 233.1 314.4 Q233 314.1 232.9 313.7 L232.9 313.7 L232.9 315 L232.6 315.3 Q232.4 314.9 232.3 314.6 Q232.2 314.4 232.2 313 Q232.2 311.6 232.3 311 Q232.4 310.3 232.8 309.2 L232.8 309.2 L232.8 309.4 M244.7 331.6 L244.1 333.3 Q244.4 333 244.6 332.8 Q244.7 332.6 244.7 332.4 Q244.7 332.2 244.7 331.6 L244.7 331.6 M351.1 238 Q351.9 239.6 352.3 240.3 Q352.7 241 352.7 242.4 Q352.6 243.7 352.4 245.2 Q352.2 246.6 351 250.9 L351 250.9 L356.9 246.2 Q357.3 245.2 358 244.4 L358 244.4 Q358.2 244.4 358.7 244.2 Q359.2 244 359.9 243.6 L359.9 243.6 L360.2 242.9 Q360.4 242.9 360.6 242.9 Q360.8 242.9 361 242.7 Q361.2 242.5 361.6 242.5 Q362 242.5 362.3 242.2 Q362.5 242 362.8 242 Q363.1 241.9 363.4 241.8 L363.4 241.8 Q364.2 242.5 365.3 242.8 L365.3 242.8 L365.4 243.1 Q365.7 243.2 365.9 243.3 Q366.1 243.4 366.9 244 Q367.7 244.7 369.5 245.6 Q371.4 246.5 371.7 246.8 Q372 247.1 372.7 247.4 L372.7 247.4 L372.4 247.6 Q373.5 248.7 374.7 249.5 L374.7 249.5 Q374.7 249.9 374.9 250.2 Q375.2 250.4 375.3 250.8 Q375.4 251.1 375.6 251.3 Q375.7 251.6 375.7 251.8 L375.7 251.8 L374 252.4 Q370.9 254.3 370.7 254.5 Q370.6 254.7 370 254.9 L370 254.9 L368.4 256.5 Q367.7 257.1 367.3 257.3 Q366.9 257.4 366.7 257.5 Q366.5 257.5 366.2 257.7 L366.2 257.7 Q361.6 264.6 361.6 264.6 Q361.6 264.6 357.4 270 L357.4 270 Q358.5 270.3 359.2 270.5 Q359.9 270.6 361.9 271.1 Q364 271.6 368.4 271.5 L368.4 271.5 L368.3 271.7 Q369.9 272.1 370.8 272.3 Q371.7 272.5 385.2 274 L385.2 274 Q399.1 274.9 400.1 275.1 Q401.1 275.4 402.3 275.7 L402.3 275.7 Q402.4 276.1 402.5 276.2 Q402.5 276.4 402.4 276.5 Q402.3 276.6 402.1 277 L402.1 277 L401.6 277.3 Q401 277.9 400.9 278.1 Q400.7 278.4 400.7 278.6 Q400.7 278.8 400.6 279 Q400.5 279.2 400.2 279.6 L400.2 279.6 L399 280.2 L398.8 280.5 L397.8 281.1 L397.5 281.6 L397.6 281.8 L395.5 283.3 L395 284 Q393.9 284.8 392.6 285.1 L392.6 285.1 L392.5 285.6 L390.6 286.9 L390.7 287.1 L390.1 287.7 Q388.4 288.6 387.6 288.9 Q386.8 289.3 385.9 289.7 Q384.9 290.1 383.8 290.2 Q382.6 290.3 381 291.3 Q379.3 292.3 377.9 292 Q376.4 291.8 375.2 292.4 Q374 293.1 366.1 289.2 Q358.2 285.3 356 283.8 Q353.6 282.3 348.9 280 L348.9 280 L348.4 280.4 L348.7 280.5 L348.7 280.9 L344.2 285.3 Q344.5 285.3 344.6 285.2 Q344.8 285.1 345.3 284.7 Q345.8 284.2 346.3 284 Q346.8 283.9 347.4 283.5 L347.4 283.5 L344.7 286.1 L344.8 286.4 L345.1 286.4 L345.4 286.6 L346.3 287.3 L345.9 286.8 L346.1 286.4 L346.6 287.3 Q347.2 287.1 347.8 287.1 L347.8 287.1 L348.6 287.8 Q348.7 287.9 349.2 287.8 Q349.7 287.8 350 287.9 L350 287.9 L349.9 288.1 Q350.4 288.5 350.7 288.6 Q351 288.8 351.4 289 Q351.7 289.2 352.4 290 L352.4 290 L352.5 290.8 Q352.8 291.1 353.3 291.2 L353.3 291.2 L353.2 291.7 L352.5 291.6 L352.3 292.2 L355.4 291.6 L354.7 292 Q354.6 292 354.5 292 Q354.5 291.9 354.1 292 Q353.6 292.2 352.8 292.4 L352.8 292.4 Q353.4 292.3 353.7 292.3 Q354 292.3 354.5 292.3 Q355 292.3 361.1 291.2 L361.1 291.2 L361 291 L362.3 291 L361.7 290.2 L362.2 290.2 L362.2 289.9 L362.6 289.7 L362.5 289.5 L362.2 289.2 Q362.3 289.2 362.4 289.2 Q362.6 289.2 363.2 289.5 Q363.8 289.7 364.5 289.7 Q365.3 289.6 365.6 289.9 Q365.8 290.2 366.3 290.5 L366.3 290.5 L366.5 290.4 Q367.1 290.8 367.6 291 Q368.1 291.2 371 292.2 Q373.8 293.1 377.5 296 L377.5 296 L377.6 296.2 L380.1 298.4 L380.3 299.1 L380.7 299.2 Q380.7 299.3 380.7 299.5 Q380.8 299.6 381 299.9 Q381.2 300.2 381.1 300.5 Q381 300.8 380.8 301 Q380.7 301.1 380.6 301.2 Q380.6 301.4 380.4 301.5 L380.4 301.5 L380.2 301.6 L379.5 302.9 L379 303.3 L379.2 303.8 L378.4 304.6 L378.5 304.9 Q378.3 305.1 377.2 306.7 Q376.2 308.3 376.3 309 Q376.4 309.8 376 310.1 Q375.5 310.4 375.4 310.9 Q375.4 311.4 375.3 311.5 Q375.2 311.7 375 311.9 Q374.9 312 374.6 312.4 L374.6 312.4 L375.2 312 Q374.6 313.3 374.1 314.2 Q373.5 315 373.4 315.5 L373.4 315.5 L373.2 315.7 L373.5 314.9 L373.4 314.9 L372.3 316.8 L372.4 317 L373.1 316.2 L372.6 317 L372.3 317 L371.9 317.8 L371.7 318 L372 318 L371.6 318.5 Q370.9 319.4 370.7 319.8 Q370.6 320.2 370.2 320.5 Q369.9 320.8 369.8 321 Q369.6 321.2 369.6 321.5 Q369.5 321.7 369.2 322 Q368.8 322.3 368.8 322.5 Q368.8 322.7 368.6 322.9 Q368.4 323 368.4 323.4 Q368.4 323.8 367.5 325 Q366.6 326.3 366.6 326.4 Q366.6 326.4 366.6 326.5 L366.6 326.5 L368 324.5 L368.4 324.4 Q367.7 325.5 367.4 325.9 Q367.1 326.2 366.9 326.6 Q366.8 327 366.6 327.3 Q366.5 327.7 365.9 328.6 Q365.3 329.5 364.9 330.1 L364.9 330.1 L364.7 330.2 Q364.6 330.6 364.5 330.7 Q364.5 330.9 364.3 331 Q364.2 331.1 363.9 331.5 L363.9 331.5 Q363.9 331.4 364.3 330.7 Q364.8 330 365.8 327.8 Q366.8 325.6 369.6 321.2 Q372.4 316.8 374.8 310.8 L374.8 310.8 L374.7 310.7 Q374.6 311.1 374 312 Q373.4 312.9 373.3 313.5 Q373.2 314.1 372.9 314.4 Q372.6 314.6 372.5 315.4 Q372.3 316.2 371.9 316.7 Q371.5 317.2 370.6 318.7 L370.6 318.7 L369.8 319.1 L370 319.5 L369.3 319.9 L369.6 319.6 L369.2 319.4 Q368.9 320 368.8 320.4 Q368.6 320.9 368.1 321.7 Q367.7 322.4 367.7 322.8 Q367.7 323.2 367.6 323.4 Q367.5 323.5 367.1 324 L367.1 324 L367.2 323.8 L366.8 323.9 Q366.8 324 366.8 324.2 Q366.8 324.4 366.6 324.5 Q366.5 324.7 366.4 325.2 L366.4 325.2 L366.6 325.3 Q366.4 325.4 366.1 325.3 L366.1 325.3 Q366.1 325.4 366.1 325.5 Q366.1 325.6 365.7 326.1 Q365.3 326.7 365.3 326.9 Q365.4 327.2 365.1 327.4 Q364.8 327.6 364.7 327.7 Q364.7 327.9 364.6 328.3 L364.6 328.3 L364.9 328.1 Q365.3 327.6 365.6 327 Q366 326.4 366.1 326.3 L366.1 326.3 L364.8 328.8 L364.5 329.1 L364.3 329.3 L364.1 329.2 L363.2 330.8 L363.3 330.9 L363.8 330.6 Q363.8 330.7 363.8 330.7 Q363.9 330.7 363.6 331.1 Q363.3 331.5 363.2 331.8 L363.2 331.8 L362.7 332.1 Q362.7 332.2 362.8 332.3 Q362.9 332.4 362.7 332.5 Q362.5 332.6 362.4 333 L362.4 333 L361.8 333.4 Q362 333 362.5 332.6 L362.5 332.6 L362.3 332.4 Q361.4 333.7 361 334.1 Q360.7 334.6 360.5 335 Q360.3 335.4 360 335.6 Q359.7 335.9 359.7 336.1 Q359.6 336.4 359.6 337.1 L359.6 337.1 L359.2 337.2 L358.8 337.6 L358.2 338 L358.1 337.8 L358.1 338.4 L357.7 338 L357 338.7 L356.8 338.7 L356.3 337.7 L356.3 338.4 Q355.8 338 356 337.6 L356 337.6 L355.5 337.6 L355.6 336.5 L355 336.2 L355.5 336.1 Q355.4 335.9 355.3 335.6 Q355.3 335.3 355.3 334.8 L355.3 334.8 L355.7 335 Q354.7 333.3 354.3 332.8 Q354 332.2 353.6 331.4 Q353.3 330.7 353.1 330 Q352.8 329.3 352.4 328.8 Q352 328.3 352 328 Q352 327.8 351.8 327.6 Q351.6 327.5 351.3 326.4 Q351 325.3 349.9 323.1 Q348.7 321 346.9 315.7 L346.9 315.7 L347.6 316.9 L348.1 317.2 L347.7 316.4 L348 316.5 L348 316.1 L348.2 316.2 L348.4 316.1 L348.1 315.4 L348.5 315.4 L349.6 316.9 L349.5 316.3 L349.9 316.8 L349.9 316.6 L350.2 316.9 Q350.3 316.8 350.3 316.6 Q350.3 316.5 350.2 316.3 Q350.1 316.1 349.9 315.6 L349.9 315.6 L351.1 317.1 L352 317.5 L352 317.1 Q352.5 317.1 353.2 317 L353.2 317 L353.2 316.8 L353.8 316.9 L353.9 316.6 Q354.2 316.8 354.3 316.8 Q354.5 316.9 354.6 316.8 Q354.7 316.8 354.9 316.8 L354.9 316.8 Q355 316.6 355 316.5 Q355 316.4 355 316.3 Q354.9 316.2 354.8 316.1 L354.8 316.1 L355.3 316.2 L355.5 315.3 L355.5 315.7 L355.7 315.6 L356 316.1 L356.2 315.3 L356.8 314.9 Q357.1 313.2 357.7 311.2 L357.7 311.2 L357.3 311.2 Q357.4 310.1 357.8 309.1 L357.8 309.1 L357.3 310 Q357.2 309.9 357.2 309.8 Q357.2 309.8 357.6 308.2 Q358 306.6 358.3 306.3 Q358.6 306 358.7 305.3 Q358.8 304.7 359.9 299.1 L359.9 299.1 Q359.6 299.1 359.5 299.1 Q359.3 299.1 358.4 299.3 Q357.6 299.5 356.8 299.9 Q356.1 300.2 355 300.4 Q354 300.7 353.4 300.9 Q352.7 301.1 352.4 301.1 Q352 301.1 351.6 301.2 Q351.1 301.4 350 301.6 L350 301.6 Q349.7 302.2 349.1 303.1 Q348.5 304 346.5 307.8 L346.5 307.8 L346.1 308.3 Q346.1 308.4 346.1 308.5 Q346.1 308.7 345.9 309.1 Q345.7 309.4 345.5 309.6 Q345.4 309.8 345.1 310 L345.1 310 L344.9 310.1 L343.2 313.5 L343.8 312.9 L344.1 312.5 Q343.8 313.3 343.6 313.8 Q343.4 314.2 341.7 317.2 L341.7 317.2 L341.9 317.3 L341.5 317.7 Q341.5 317.8 341.5 317.9 Q341.5 318 340.7 318.9 Q339.9 319.8 339.2 320.9 Q338.6 322.1 335.7 325.5 L335.7 325.5 L333.1 327.5 L334.6 326 Q333.5 326.5 333.2 326.8 Q333 327.1 332.4 327.1 Q331.8 327.1 330.9 328 Q330.1 328.8 329.3 328.9 Q328.6 329 328.2 329.2 Q327.8 329.5 327.3 329.6 Q326.9 329.8 325.9 330.2 L325.9 330.2 L326.7 329.5 L326.5 329.4 L325.5 330.1 L325.6 329.8 Q325.2 329.9 325 329.9 Q324.7 330 324 330.6 Q323.3 331.1 322.8 331.1 Q322.3 331.1 321.6 331.6 Q321 332.1 320.5 332.1 Q320.1 332.1 319.5 332.2 L319.5 332.2 L320.2 331.6 L320.1 331.4 Q318.5 332.1 317.8 332.3 Q317.1 332.6 316.7 332.8 Q316.3 333 315.5 333.4 L315.5 333.4 L319.1 330.6 L318.2 330.8 L318.6 330.6 Q319.5 329.3 320.1 328.6 Q320.6 327.8 322.4 325.9 Q324.2 323.9 324.6 323.5 L324.6 323.5 L324.3 323.9 L324.6 323.9 Q328.4 319.1 328.3 319 Q328.2 318.8 328.2 318.7 L328.2 318.7 L326.4 321 L329.5 316.5 L330.3 316 Q329.5 316.9 328.8 317.9 L328.8 317.9 L329.3 317.7 L329.2 317.8 Q328.7 318 328.4 318.4 L328.4 318.4 L328.8 318.4 L328.8 318.7 L329.4 317.9 L329.6 317.9 Q327.7 320.3 326 323 L326 323 L326.4 322.6 L327.1 321.9 L332.6 314.1 L332.3 314.1 L332.5 313.7 L332.5 313.9 L333 313.5 L332.5 313.5 Q335 309.8 335.4 309.2 Q335.7 308.6 336.1 307.8 L336.1 307.8 Q335.4 308.9 335 309.3 Q334.6 309.8 334.4 310.2 Q334.2 310.6 333.8 311 Q333.4 311.5 332.4 312.7 L332.4 312.7 L332.3 312.9 Q334.6 309.6 334.8 309 Q335.1 308.4 335.7 307.5 L335.7 307.5 L333.1 308.4 L332.5 308.8 Q332.4 308.8 332.3 308.8 Q332.1 308.7 332 308.8 Q331.8 308.9 331.3 309.1 L331.3 309.1 L330.3 308.4 L330 308.5 L328.8 307.7 L328.8 307.9 L328.7 307.6 Q327.2 306.3 326.7 305.7 Q326.3 305.1 325.8 305.1 Q325.4 305 324.7 304.6 Q324.1 304.2 320.6 301.4 L320.6 301.4 L320.8 301.2 L321.5 301.2 L321.5 300.9 L321.7 300.7 L321.2 300.3 L322.1 300.2 L321.3 299.4 Q321.9 299.4 322.4 299.1 L322.4 299.1 L322 298.7 Q324 298.4 325.7 297.7 L325.7 297.7 L324.2 297.9 L324.1 297.8 Q324.3 297.6 324.4 297.4 Q324.6 297.3 324.8 297.4 Q325 297.4 325.2 297.2 Q325.4 297 325.7 296.9 Q326 296.8 326.6 296.3 L326.6 296.3 L326.7 295.8 L325.8 296.1 L325.7 296.4 L324.3 296.9 L324.3 297.1 Q322.4 298.2 320.3 299.2 L320.3 299.2 L320.1 299.1 Q319.3 299.4 318.2 299.5 L318.2 299.5 Q318.5 299.3 318.6 299.2 Q318.7 299.1 319.6 298.8 Q320.5 298.5 322.1 297.8 Q323.6 297.1 323.8 296.9 Q324 296.8 324.2 296.5 L324.2 296.5 Q322 297.6 319.8 298.2 L319.8 298.2 Q320.4 298 320.8 297.8 Q321.1 297.7 321.9 297.4 Q322.7 297.2 322.9 297 Q323.2 296.8 323.5 296.4 L323.5 296.4 Q322.5 296.8 322 297 Q321.6 297.2 321 297.2 Q320.5 297.2 320.1 297.4 Q319.6 297.7 318.5 298.1 L318.5 298.1 L319 297.9 Q314.7 299.1 314.1 299.3 Q313.5 299.6 313.2 299.5 Q312.9 299.4 312.7 299.2 Q312.4 299.1 311.6 299.3 Q310.9 299.6 310.1 299.7 Q309.3 299.7 307.5 300 L307.5 300 Q308.9 299.6 309.6 299.5 Q310.3 299.4 310.6 299.2 Q310.9 299.1 311.4 298.7 L311.4 298.7 Q307.9 299.3 304.2 299.2 L304.2 299.2 L305.5 298.7 Q304.9 298.7 304.5 298.7 Q304.2 298.6 303.7 298.7 Q303.3 298.8 302.1 299.1 L302.1 299.1 L303.6 298.4 L302.6 298.6 L303.3 298.1 L302.1 298.4 L303 297.9 L302.7 297.7 L315 289.9 L315.4 290 L321.7 285.4 L320.6 285.9 Q329 279.6 337.4 273.1 L337.4 273.1 L337.3 272.8 L335.6 274.2 L335.6 274.1 Q336.1 273.5 336.9 273 L336.9 273 L337.1 272.7 Q335.8 272.1 335 271.7 Q334.1 271.2 333.2 271.2 Q332.4 271.2 331.6 271 Q330.8 270.8 328.1 271 Q325.4 271.2 324.4 271.5 Q323.4 271.7 323.1 271.8 L323.1 271.8 Q322.8 271.6 322.7 271.5 Q322.5 271.3 322.4 271.3 Q322.3 271.3 322.1 271.3 L322.1 271.3 Q321.7 270.6 321.4 270.4 Q321.1 270.2 320.8 269.6 Q320.5 268.9 320.2 268.5 Q319.8 268 319.7 267.5 Q319.5 267.1 319 266.6 Q318.5 266 318.2 265.5 Q318 265 318 264.8 Q318 264.6 318 264.2 L318 264.2 Q322.4 263.3 324.7 263.2 Q327 263.1 328.1 263.1 Q329.3 263.2 331 263.3 L331 263.3 L330.8 262.7 L330.9 262.4 Q330.8 262.1 330.7 262 Q330.6 261.9 330.7 261.6 Q330.8 261.3 330.6 261.1 Q330.5 260.9 330.5 260.3 L330.5 260.3 L330.1 260.3 L329.8 260.1 Q330 259.8 330 259.7 Q330.1 259.6 330 259.1 Q330 258.7 330.1 258.6 Q330.2 258.6 330.4 258.3 L330.4 258.3 L330.2 257 L330.6 256.9 L330.4 256.5 Q330.5 256 330.6 255.8 Q330.6 255.6 331.3 254.4 Q331.9 253.3 332 252.8 L332 252.8 Q333.1 252.1 333.4 251.8 Q333.8 251.6 334.8 251.2 Q335.9 250.8 338.1 249.4 Q340.3 248.1 345.1 243.2 L345.1 243.2 Q347.9 240.3 347.9 240.3 Q347.9 240.3 349.5 236.6 L349.5 236.6 L351.1 238 M348.1 256.9 L346.6 258.7 Q343.6 261.6 342.8 262.1 Q341.9 262.6 340.4 263.5 L340.4 263.5 L339.5 264.7 L344.2 266 Q345.1 264.9 345.9 264.2 Q346.6 263.4 350.9 257.1 L350.9 257.1 Q350.2 257.1 349.9 257.1 Q349.6 257.2 349.4 257 Q349.2 256.9 348.6 256.5 L348.6 256.5 L348.1 256.9 M359.3 262.9 L354.5 269 L355.1 269.4 Q357.9 265.7 358.4 264.9 Q358.9 264.1 359.6 262.8 L359.6 262.8 L359.3 262.9 M359.4 264.8 L358.5 265.4 L358.7 265.6 Q358.5 265.9 358.3 266.2 Q358.1 266.5 357.4 267.3 Q356.8 268 356.5 268.4 L356.5 268.4 L355.5 269.4 L355.8 269.6 Q357.8 267.4 359.4 264.9 L359.4 264.9 L359.4 264.8 M343.1 287.6 Q337.1 292.6 336.1 293.1 Q335.1 293.6 333.6 294.7 L333.6 294.7 L333.6 294.2 Q333.3 294.6 333 294.6 Q332.7 294.7 331.5 295.4 Q330.2 296.1 329.7 296 Q329.2 296 329 296.2 Q328.8 296.5 328.4 296.5 Q328 296.5 327.5 296.8 Q327 297.1 325.7 297.7 L325.7 297.7 L327.8 297.2 L327.4 297.4 L341.7 294.1 Q342.8 290 342.9 289.3 Q343 288.7 343.1 287.6 L343.1 287.6 M317.1 298.9 L317 299.1 L316.5 299.1 L316.4 299.3 L317.7 299.2 Q316.5 299.9 315.1 300 L315.1 300 L316.3 299.5 L315.6 299.4 L317 298.9 L317.1 298.9 M354 300.1 L354.1 300.2 L356.9 299.4 L357.1 299.2 L354 300.1 M351.1 300.5 L350.9 300.8 Q352.3 300.8 353.6 300.2 L353.6 300.2 L351.1 300.5 M371.9 318.6 L370.1 321.5 L369.9 321.5 Q370.1 321.4 370.2 321.3 Q370.3 321.2 370.3 321.1 Q370.3 320.9 370.7 320.4 Q371.1 320 371.3 319.6 Q371.5 319.2 371.8 318.5 L371.8 318.5 L371.9 318.6 M367.6 322.1 L366.3 324.6 L366 324.4 Q366.1 324.1 366.5 323.5 Q367 322.9 367 322.7 Q367.1 322.5 367.3 322.2 L367.3 322.2 L367.6 322.1 M363.3 330.9 Q362.9 331.7 362.4 332.4 L362.4 332.4 L361.9 332.3 Q362.5 331.6 363.2 330.9 L363.2 330.9 L363.3 330.9 M363.7 331.9 L363.2 332.8 L362.9 333 L362.7 333.3 L362.4 333.4 L363.7 332.5 L363.7 331.9 Z" style="" fill="#000000" transform="matrix(1,0,0,1,0,0)"/></g></g>
              <g class="slogan"><g id="sloganDefaultGroup"><path d="M217.2 346 L217.2 358.5 L216 358.5 L216 357.5 L207.8 357.5 L207.8 358.6 L206.5 358.6 L206.5 346 L210.3 346 Q210.5 345.5 210.7 344.9 Q210.9 344.3 211.1 343.9 L211.1 343.9 L212.4 344.1 Q212.3 344.5 212.1 345.1 Q211.9 345.6 211.7 346 L211.7 346 L217.2 346 M207.8 347.2 L207.8 349.5 L216 349.5 L216 347.2 L207.8 347.2 M207.8 350.6 L207.8 352.9 L216 352.9 L216 350.6 L207.8 350.6 M216 356.4 L216 354.1 L207.8 354.1 L207.8 356.4 L216 356.4 M240.7 358.8 Q240.6 358.5 240.5 358.2 Q240.3 357.8 240.2 357.4 L240.2 357.4 Q239.4 357.5 238.3 357.6 Q237.3 357.7 236.1 357.8 Q235 357.8 233.9 357.9 Q232.8 358 232 358 L232 358 L231.8 356.9 Q232.7 356.9 233.8 356.8 Q235 356.8 236.1 356.7 L236.1 356.7 L236.1 354.5 L232.9 354.5 L232.9 350.5 L236.1 350.5 L236.1 349 L233.4 349 L233.4 345 L240 345 L240 349 L237.3 349 L237.3 350.5 L240.6 350.5 L240.6 354.5 L237.3 354.5 L237.3 356.6 L239.7 356.5 Q239.5 356.1 239.3 355.8 Q239.2 355.5 239 355.2 L239 355.2 L240 354.8 Q240.1 355.1 240.4 355.5 Q240.6 356 240.9 356.4 Q241.1 356.9 241.4 357.4 Q241.6 357.9 241.7 358.2 L241.7 358.2 L240.7 358.8 M229.2 352 L231.7 352 L231.5 356.5 Q231.4 357 231.3 357.3 Q231.2 357.6 230.9 357.8 Q230.7 358 230.2 358.1 Q229.8 358.2 229.2 358.2 L229.2 358.2 L228.5 358.3 L228.1 357.2 L229.2 357.1 Q229.6 357.1 229.8 357 Q230.1 357 230.2 356.8 Q230.3 356.7 230.3 356.5 Q230.3 356.3 230.4 355.9 L230.4 355.9 Q230.4 355.8 230.4 355.4 Q230.4 355 230.5 354.5 Q230.5 354 230.5 353.6 Q230.5 353.2 230.5 353.1 L230.5 353.1 L228 353.1 L228.3 348.6 L230.7 348.6 L230.7 346.2 L227.8 346.2 L227.8 345.1 L231.8 345.1 L231.8 349.7 L229.4 349.7 L229.2 352 M234.6 348 L238.9 348 L238.9 346 L234.6 346 L234.6 348 M236.1 353.6 L236.1 351.4 L234 351.4 L234 353.6 L236.1 353.6 M237.3 351.4 L237.3 353.6 L239.5 353.6 L239.5 351.4 L237.3 351.4 M259 346.4 Q258.2 348 257.2 349.3 L257.2 349.3 L258 349.4 L258 358.6 L256.8 358.6 L256.8 349.9 Q255.6 351.4 254.2 352.7 Q252.9 354 251.1 355.3 L251.1 355.3 L250.2 354.2 Q252.8 352.5 254.6 350.6 Q256.3 348.6 257.5 346.4 L257.5 346.4 L251.1 346.4 L251.1 345.2 L263.7 345.2 L263.7 346.4 L259 346.4 M259.4 349.6 Q260 350 260.6 350.6 Q261.3 351.2 262 351.8 Q262.7 352.4 263.3 353 Q263.9 353.6 264.4 354.1 L264.4 354.1 L263.5 355.2 Q263 354.6 262.4 354 Q261.7 353.3 261.1 352.7 Q260.4 352 259.8 351.5 Q259.1 350.9 258.6 350.5 L258.6 350.5 L259.4 349.6 M279.9 353.1 L274.9 353.1 L274.9 345.6 L278.4 345.6 Q278.6 345.2 278.7 344.8 Q278.9 344.3 279 344.1 L279 344.1 L280.2 344.3 Q280.2 344.5 280 344.9 Q279.9 345.2 279.8 345.6 L279.8 345.6 L284.9 345.6 L284.9 353.1 L280 353.1 Q280.2 353.4 280.5 353.7 Q280.7 354 281 354.3 Q281.2 354.7 281.4 355 Q281.6 355.3 281.7 355.5 L281.7 355.5 L280.8 356.2 Q280.7 355.9 280.5 355.6 Q280.2 355.2 280 354.9 Q279.8 354.5 279.6 354.2 Q279.3 353.9 279.1 353.7 L279.1 353.7 L279.9 353.1 M276.1 346.6 L276.1 347.7 L283.7 347.7 L283.7 346.6 L276.1 346.6 M283.7 348.7 L276.1 348.7 L276.1 349.9 L283.7 349.9 L283.7 348.7 M276.1 352.2 L283.7 352.2 L283.7 350.9 L276.1 350.9 L276.1 352.2 M284.7 353.7 Q285 354 285.3 354.4 Q285.6 354.8 286 355.3 Q286.3 355.7 286.6 356.2 Q286.9 356.6 287.2 357 L287.2 357 L286.2 357.8 Q286 357.4 285.7 356.9 Q285.4 356.4 285.1 355.9 Q284.7 355.5 284.4 355 Q284.1 354.6 283.8 354.3 L283.8 354.3 L284.7 353.7 M282.4 356.2 Q282.4 355.7 282.5 355.2 L282.5 355.2 L283.6 355.6 Q283.5 356.2 283.4 356.7 L283.4 356.7 Q283.4 357.2 283.2 357.4 Q283.1 357.7 282.9 357.9 Q282.7 358 282.4 358.1 Q282 358.2 281.5 358.2 L281.5 358.2 Q279.9 358.3 278.4 358.2 L278.4 358.2 Q277.9 358.2 277.5 358.1 Q277.2 358 277 357.8 Q276.8 357.6 276.8 357.2 Q276.7 356.9 276.7 356.4 L276.7 356.4 L276.7 353.8 L277.9 353.9 L277.9 356.1 Q277.9 356.4 277.9 356.6 Q278 356.8 278.1 356.9 Q278.2 357 278.3 357.1 Q278.5 357.1 278.8 357.1 L278.8 357.1 Q280 357.2 281.2 357.1 L281.2 357.1 Q281.6 357.1 281.8 357.1 Q282 357 282.1 356.9 Q282.2 356.8 282.3 356.7 Q282.3 356.5 282.4 356.2 L282.4 356.2 M272.8 357.5 Q273.3 356.8 273.7 355.8 Q274.1 354.8 274.4 353.9 L274.4 353.9 L275.5 354.2 Q275.3 354.7 275.2 355.2 Q275 355.7 274.7 356.2 Q274.5 356.7 274.3 357.2 Q274 357.6 273.8 358 L273.8 358 L272.8 357.5 M320.9 345.9 L309.7 345.9 L309.7 349.1 Q309.7 350.4 309.6 351.5 Q309.6 352.6 309.5 353.4 Q309.4 354.2 309.2 354.9 Q309 355.6 308.8 356.2 Q308.6 356.8 308.3 357.4 Q308 357.9 307.6 358.6 L307.6 358.6 L306.6 358 Q306.9 357.4 307.2 356.8 Q307.5 356.2 307.7 355.7 Q307.9 355.1 308.1 354.5 Q308.2 353.8 308.3 353.1 Q308.4 352.3 308.4 351.4 Q308.5 350.4 308.5 349.2 L308.5 349.2 L308.5 344.9 L320.9 344.9 L320.9 345.9 M311.1 351.2 L311.1 346.8 L319.8 346.8 L319.8 351.2 L311.1 351.2 M312.2 347.7 L312.2 348.6 L318.6 348.6 L318.6 347.7 L312.2 347.7 M318.6 350.3 L318.6 349.4 L312.2 349.4 L312.2 350.3 L318.6 350.3 M321.1 355.4 L316.2 355.4 L316.2 356.7 Q316.2 357.2 316.1 357.5 Q316 357.8 315.8 358 Q315.5 358.2 315.1 358.3 Q314.7 358.4 314 358.4 L314 358.4 L313 358.5 L312.6 357.5 L313.7 357.4 Q314.2 357.4 314.4 357.3 Q314.6 357.3 314.8 357.2 Q314.9 357.1 314.9 356.9 Q315 356.8 315 356.5 L315 356.5 L315 355.4 L309.8 355.4 L309.8 354.5 L315 354.5 L315 354.1 Q315.2 354 315.6 353.9 Q315.9 353.8 316.3 353.6 Q316.6 353.5 317 353.3 Q317.4 353.2 317.7 353 L317.7 353 L310.9 353 L310.9 352.1 L319.9 352.1 L319.9 353 Q319 353.4 318.1 353.8 Q317.2 354.2 316.3 354.5 L316.3 354.5 L321.1 354.5 L321.1 355.4 M337.8 345.5 L337.8 344.1 L339 344.2 L339 345.5 L343.5 345.5 L343.5 346.5 L339 346.5 L339 347.7 L342.7 347.7 L342.7 351.3 L334.2 351.3 L334.2 347.7 L337.8 347.7 L337.8 346.5 L333.7 346.5 L333.7 345.5 L337.8 345.5 M333.7 344.8 Q333.4 345.3 333 345.9 Q332.6 346.4 332.1 347 Q331.6 347.6 331.2 348.1 Q330.7 348.6 330.2 349.1 L330.2 349.1 L329.4 348.4 Q329.9 348 330.4 347.4 Q330.9 346.9 331.3 346.3 Q331.8 345.7 332.2 345.2 Q332.5 344.6 332.8 344.1 L332.8 344.1 L333.7 344.8 M333.6 348.6 Q333.3 349.2 333 349.7 Q332.7 350.2 332.4 350.7 L332.4 350.7 L332.4 358.6 L331.3 358.6 L331.3 352.2 Q331 352.6 330.6 353 Q330.3 353.4 329.9 353.8 L329.9 353.8 L329.1 353 Q329.5 352.5 330.1 351.9 Q330.6 351.3 331.1 350.6 Q331.6 350 332 349.3 Q332.4 348.7 332.7 348.1 L332.7 348.1 L333.6 348.6 M335.2 350.4 L336.7 350.4 L336.7 348.6 L335.2 348.6 L335.2 350.4 M337.6 348.6 L337.6 350.4 L339.2 350.4 L339.2 348.6 L337.6 348.6 M341.6 348.6 L340.2 348.6 L340.2 350.4 L341.6 350.4 L341.6 348.6 M343.4 353.2 L333.6 353.2 L333.6 352.2 L343.4 352.2 L343.4 353.2 M339 356.1 Q338.9 355.8 338.7 355.5 Q338.5 355.2 338.3 354.9 Q338 354.6 337.8 354.3 Q337.6 354.1 337.4 353.9 L337.4 353.9 L338.2 353.3 Q338.3 353.5 338.6 353.7 Q338.8 354 339 354.3 Q339.2 354.6 339.5 354.8 Q339.7 355.1 339.8 355.3 L339.8 355.3 L339 356.1 M332.7 357.5 Q333 357.2 333.2 356.8 Q333.5 356.3 333.7 355.8 Q333.9 355.4 334.1 354.9 Q334.3 354.4 334.4 354.1 L334.4 354.1 L335.3 354.4 Q335.2 354.8 335 355.3 Q334.8 355.8 334.6 356.3 Q334.4 356.8 334.1 357.3 Q333.9 357.8 333.7 358 L333.7 358 L332.7 357.5 M341.8 354.1 Q342.1 354.4 342.4 354.8 Q342.7 355.1 343 355.6 Q343.3 356 343.6 356.4 Q343.9 356.9 344 357.2 L344 357.2 L343.2 357.9 Q343 357.6 342.7 357.1 Q342.5 356.7 342.2 356.2 Q341.9 355.8 341.6 355.4 Q341.3 355 341 354.7 L341 354.7 L341.8 354.1 M340 356.8 Q340 356.6 340.1 356.2 Q340.1 355.9 340.1 355.6 L340.1 355.6 L341.1 356 Q341.1 356.3 341.1 356.7 Q341 357 340.9 357.4 L340.9 357.4 Q340.8 357.8 340.5 358 Q340.2 358.2 339.4 358.2 L339.4 358.2 Q338.3 358.3 337.2 358.2 L337.2 358.2 Q336.9 358.2 336.6 358.2 Q336.3 358.1 336.2 357.9 Q336 357.8 335.9 357.5 Q335.8 357.3 335.8 356.9 L335.8 356.9 L335.8 354.1 L336.8 354.2 L336.8 356.6 Q336.8 357 336.9 357.1 Q337.1 357.2 337.5 357.3 L337.5 357.3 Q338.4 357.3 339.2 357.3 L339.2 357.3 Q339.6 357.2 339.8 357.1 Q339.9 357 340 356.8 L340 356.8 M362.1 349.1 Q362.3 351.7 362.7 353.5 L362.7 353.5 Q363.3 352.7 363.7 351.7 Q364.2 350.8 364.5 349.7 L364.5 349.7 L365.6 350.2 Q365 351.6 364.4 352.7 Q363.8 353.9 363.1 354.9 L363.1 354.9 Q363.3 355.6 363.6 356.2 L363.6 356.2 Q363.8 356.7 364 356.9 Q364.2 357.1 364.4 357.1 L364.4 357.1 Q364.6 357.1 364.7 356.8 Q364.9 356.5 365 355.8 L365 355.8 Q365.1 355.4 365.1 355.2 Q365.1 354.9 365.1 354.5 L365.1 354.5 L366.2 355 Q366.2 355.2 366.2 355.4 Q366.2 355.5 366.1 355.6 Q366.1 355.8 366.1 356 Q366 356.2 366 356.5 L366 356.5 Q365.8 357.1 365.7 357.4 Q365.5 357.8 365.4 358.1 Q365.2 358.3 364.9 358.4 Q364.7 358.5 364.4 358.5 L364.4 358.5 Q363.9 358.5 363.4 358.1 Q363 357.8 362.6 356.9 L362.6 356.9 Q362.4 356.5 362.2 355.9 L362.2 355.9 Q361.7 356.5 361.1 357 Q360.5 357.6 359.8 358.2 L359.8 358.2 L359 357.2 Q359.9 356.6 360.6 356 Q361.2 355.3 361.8 354.7 L361.8 354.7 Q361.5 353.5 361.3 352.1 Q361 350.7 360.9 349.1 L360.9 349.1 L352.4 349.1 L352.4 348.1 L356.2 348.1 L356.2 346.6 L353.3 346.6 L353.3 345.6 L356.2 345.6 L356.2 344.1 L357.3 344.1 L357.3 345.6 L360.1 345.6 L360.1 346.6 L357.3 346.6 L357.3 348.1 L360.8 348.1 Q360.8 347.8 360.8 347.6 Q360.8 347.4 360.8 347.2 L360.8 347.2 L360.7 343.9 L361.8 344 L362 347.4 Q362 347.6 362 347.8 Q362 347.9 362 348.1 L362 348.1 L366.5 348.1 L366.5 349.1 L362.1 349.1 M364.8 347.6 Q364.6 347.2 364.2 346.9 Q363.9 346.5 363.6 346.2 Q363.3 345.9 363 345.6 Q362.7 345.4 362.5 345.2 L362.5 345.2 L363.3 344.5 Q363.7 344.8 364.3 345.4 Q364.9 346 365.5 346.7 L365.5 346.7 L364.8 347.6 M360.2 356 Q359.8 356.1 359.1 356.1 Q358.5 356.2 357.7 356.3 L357.7 356.3 L357.7 358.5 L356.5 358.5 L356.5 356.4 Q355.9 356.4 355.3 356.5 Q354.7 356.5 354.1 356.6 Q353.5 356.6 353.1 356.6 Q352.6 356.6 352.2 356.7 L352.2 356.7 L352.1 355.6 Q352.5 355.6 353 355.6 Q353.5 355.6 354.1 355.5 Q354.6 355.5 355.3 355.5 Q355.9 355.4 356.5 355.4 L356.5 355.4 L356.5 354.2 L353.5 354.2 L353.5 353.2 Q354.1 352.3 354.5 351.5 L354.5 351.5 L352.8 351.5 L352.8 350.5 L355.1 350.5 Q355.2 350.1 355.4 349.9 Q355.5 349.6 355.6 349.3 L355.6 349.3 L356.7 349.6 Q356.6 349.8 356.5 350 Q356.4 350.2 356.3 350.5 L356.3 350.5 L360.3 350.5 L360.3 351.5 L355.8 351.5 Q355.6 351.9 355.3 352.3 Q355.1 352.7 354.8 353.2 L354.8 353.2 L356.5 353.2 L356.5 352 L357.7 352.1 L357.7 353.2 L360.1 353.2 L360.1 354.2 L357.7 354.2 L357.7 355.3 Q358.5 355.2 359.1 355.1 Q359.8 355.1 360.2 355 L360.2 355 L360.2 356 M380.4 352.2 Q380.1 352.3 379.7 352.5 Q379.3 352.6 378.8 352.9 L378.8 352.9 L378.8 358.5 L377.7 358.5 L377.7 353.3 Q377 353.6 376.3 353.9 Q375.6 354.1 375 354.3 L375 354.3 L374.7 353.2 Q375.4 353 376.1 352.8 Q376.9 352.5 377.7 352.2 L377.7 352.2 L377.7 348.4 L376.5 348.4 Q376.3 349.2 376.2 350 Q376 350.8 375.9 351.4 L375.9 351.4 L374.8 351.2 Q375 350.7 375.2 350 Q375.3 349.3 375.4 348.5 Q375.5 347.7 375.6 346.9 Q375.7 346.2 375.7 345.5 L375.7 345.5 L376.8 345.6 Q376.8 346 376.7 346.5 Q376.7 346.9 376.6 347.3 L376.6 347.3 L377.7 347.3 L377.7 344.1 L378.8 344.2 L378.8 347.3 L380.2 347.3 L380.2 348.4 L378.8 348.4 L378.8 351.7 Q379.2 351.6 379.5 351.4 Q379.9 351.3 380.1 351.1 L380.1 351.1 L380.4 352.2 M388.6 346.6 Q388.6 346.7 388.6 347.2 Q388.6 347.6 388.6 348.2 Q388.5 348.9 388.5 349.7 Q388.5 350.4 388.4 351.2 Q388.4 352.1 388.4 352.8 Q388.4 353.6 388.3 354.3 Q388.3 354.9 388.3 355.3 Q388.3 355.8 388.3 355.9 L388.3 355.9 Q388.2 356.5 388.1 356.8 Q387.9 357.2 387.6 357.4 Q387.3 357.7 386.9 357.8 Q386.4 357.9 385.8 358 L385.8 358 L384.7 358.1 L384.3 357 L385.5 356.9 Q385.9 356.8 386.2 356.7 Q386.5 356.7 386.7 356.5 Q386.9 356.4 387 356.1 Q387.1 355.8 387.1 355.4 L387.1 355.4 Q387.1 355.2 387.2 354.6 Q387.2 354.1 387.2 353.3 Q387.3 352.5 387.3 351.6 Q387.3 350.6 387.4 349.8 Q387.4 349 387.4 348.5 Q387.5 347.9 387.5 347.7 L387.5 347.7 L386.7 347.7 Q386.5 349.3 386.2 350.6 Q385.9 352 385.3 353.2 Q384.7 354.5 383.8 355.7 Q382.8 356.9 381.4 358.2 L381.4 358.2 L380.5 357.4 Q382 356.1 382.8 355 Q383.7 353.8 384.2 352.7 Q384.8 351.6 385.1 350.4 Q385.3 349.2 385.6 347.7 L385.6 347.7 L384.3 347.7 Q384 349.8 383 351.7 Q381.9 353.6 380.3 355.1 L380.3 355.1 L379.4 354.3 Q380.1 353.7 380.7 353.1 Q381.3 352.4 381.8 351.6 Q382.3 350.8 382.7 349.9 Q383.1 348.9 383.3 347.7 L383.3 347.7 L382.2 347.7 Q381.9 348.5 381.5 349.3 Q381.2 350 380.8 350.6 L380.8 350.6 L379.7 350 Q380.1 349.5 380.5 348.8 Q380.9 348.1 381.2 347.3 Q381.5 346.5 381.8 345.6 Q382.1 344.8 382.2 344.1 L382.2 344.1 L383.3 344.4 Q383.3 344.6 383.1 345.2 Q382.9 345.8 382.6 346.6 L382.6 346.6 L388.6 346.6 Z" style="" fill="#000000" transform="matrix(1,0,0,1,0,0)"/></g></g>
            </g>
            <g class="border">
            </g>
          </g>
          
          <defs id="defs">
            <mask xmlns="http://www.w3.org/2000/svg" id="mask">
                <rect id="showAll" fill="white" x="165" y="138" width="293" height="166"/>
                <rect id="hideNameBg" fill="black" x="0" y="0" width="0" height="0" stroke-width="2" stroke="black"/>
                <rect id="hideSloganBg" fill="black" x="0" y="0" width="0" height="0" stroke-width="2" stroke="black"/>
            </mask>
          </defs>
          
        </g>
        </svg>